<?xml version="1.0" encoding="utf-8" standalone="no"?>
<!DOCTYPE svg PUBLIC "-//W3C//DTD SVG 1.1//EN"
  "http://www.w3.org/Graphics/SVG/1.1/DTD/svg11.dtd">
<svg xmlns:xlink="http://www.w3.org/1999/xlink" width="648pt" height="360pt" viewBox="0 0 648 360" xmlns="http://www.w3.org/2000/svg" version="1.1">
 <metadata>
  <rdf:RDF xmlns:dc="http://purl.org/dc/elements/1.1/" xmlns:cc="http://creativecommons.org/ns#" xmlns:rdf="http://www.w3.org/1999/02/22-rdf-syntax-ns#">
   <cc:Work>
    <dc:type rdf:resource="http://purl.org/dc/dcmitype/StillImage"/>
    <dc:date>2022-04-27T11:03:07.885220</dc:date>
    <dc:format>image/svg+xml</dc:format>
    <dc:creator>
     <cc:Agent>
      <dc:title>Matplotlib v3.5.1, https://matplotlib.org/</dc:title>
     </cc:Agent>
    </dc:creator>
   </cc:Work>
  </rdf:RDF>
 </metadata>
 <defs>
  <style type="text/css">*{stroke-linejoin: round; stroke-linecap: butt}</style>
 </defs>
 <g id="figure_1">
  <g id="patch_1">
   <path d="M 0 360 
L 648 360 
L 648 0 
L 0 0 
z
" style="fill: #ffffff"/>
  </g>
  <g id="axes_1">
   <g id="patch_2">
    <path d="M 81 320.4 
L 583.2 320.4 
L 583.2 43.2 
L 81 43.2 
z
" style="fill: #ffffff"/>
   </g>
   <g id="matplotlib.axis_1">
    <g id="xtick_1">
     <g id="line2d_1">
      <path d="M 81 320.4 
L 81 43.2 
" clip-path="url(#p20689dbf0e)" style="fill: none; stroke: #b0b0b0; stroke-opacity: 0.8; stroke-width: 0.8; stroke-linecap: square"/>
     </g>
     <g id="line2d_2">
      <defs>
       <path id="m39a15af097" d="M 0 0 
L 0 3.5 
" style="stroke: #000000; stroke-width: 0.8"/>
      </defs>
      <g>
       <use xlink:href="#m39a15af097" x="81" y="320.4" style="stroke: #000000; stroke-width: 0.8"/>
      </g>
     </g>
     <g id="text_1">
      <!-- 0 -->
      <g transform="translate(77.81875 334.998438)scale(0.1 -0.1)">
       <defs>
        <path id="DejaVuSans-30" d="M 2034 4250 
Q 1547 4250 1301 3770 
Q 1056 3291 1056 2328 
Q 1056 1369 1301 889 
Q 1547 409 2034 409 
Q 2525 409 2770 889 
Q 3016 1369 3016 2328 
Q 3016 3291 2770 3770 
Q 2525 4250 2034 4250 
z
M 2034 4750 
Q 2819 4750 3233 4129 
Q 3647 3509 3647 2328 
Q 3647 1150 3233 529 
Q 2819 -91 2034 -91 
Q 1250 -91 836 529 
Q 422 1150 422 2328 
Q 422 3509 836 4129 
Q 1250 4750 2034 4750 
z
" transform="scale(0.015625)"/>
       </defs>
       <use xlink:href="#DejaVuSans-30"/>
      </g>
     </g>
    </g>
    <g id="xtick_2">
     <g id="line2d_3">
      <path d="M 126.654545 320.4 
L 126.654545 43.2 
" clip-path="url(#p20689dbf0e)" style="fill: none; stroke: #b0b0b0; stroke-opacity: 0.8; stroke-width: 0.8; stroke-linecap: square"/>
     </g>
     <g id="line2d_4">
      <g>
       <use xlink:href="#m39a15af097" x="126.654545" y="320.4" style="stroke: #000000; stroke-width: 0.8"/>
      </g>
     </g>
     <g id="text_2">
      <!-- 10 -->
      <g transform="translate(120.292045 334.998438)scale(0.1 -0.1)">
       <defs>
        <path id="DejaVuSans-31" d="M 794 531 
L 1825 531 
L 1825 4091 
L 703 3866 
L 703 4441 
L 1819 4666 
L 2450 4666 
L 2450 531 
L 3481 531 
L 3481 0 
L 794 0 
L 794 531 
z
" transform="scale(0.015625)"/>
       </defs>
       <use xlink:href="#DejaVuSans-31"/>
       <use xlink:href="#DejaVuSans-30" x="63.623047"/>
      </g>
     </g>
    </g>
    <g id="xtick_3">
     <g id="line2d_5">
      <path d="M 172.309091 320.4 
L 172.309091 43.2 
" clip-path="url(#p20689dbf0e)" style="fill: none; stroke: #b0b0b0; stroke-opacity: 0.8; stroke-width: 0.8; stroke-linecap: square"/>
     </g>
     <g id="line2d_6">
      <g>
       <use xlink:href="#m39a15af097" x="172.309091" y="320.4" style="stroke: #000000; stroke-width: 0.8"/>
      </g>
     </g>
     <g id="text_3">
      <!-- 20 -->
      <g transform="translate(165.946591 334.998438)scale(0.1 -0.1)">
       <defs>
        <path id="DejaVuSans-32" d="M 1228 531 
L 3431 531 
L 3431 0 
L 469 0 
L 469 531 
Q 828 903 1448 1529 
Q 2069 2156 2228 2338 
Q 2531 2678 2651 2914 
Q 2772 3150 2772 3378 
Q 2772 3750 2511 3984 
Q 2250 4219 1831 4219 
Q 1534 4219 1204 4116 
Q 875 4013 500 3803 
L 500 4441 
Q 881 4594 1212 4672 
Q 1544 4750 1819 4750 
Q 2544 4750 2975 4387 
Q 3406 4025 3406 3419 
Q 3406 3131 3298 2873 
Q 3191 2616 2906 2266 
Q 2828 2175 2409 1742 
Q 1991 1309 1228 531 
z
" transform="scale(0.015625)"/>
       </defs>
       <use xlink:href="#DejaVuSans-32"/>
       <use xlink:href="#DejaVuSans-30" x="63.623047"/>
      </g>
     </g>
    </g>
    <g id="xtick_4">
     <g id="line2d_7">
      <path d="M 217.963636 320.4 
L 217.963636 43.2 
" clip-path="url(#p20689dbf0e)" style="fill: none; stroke: #b0b0b0; stroke-opacity: 0.8; stroke-width: 0.8; stroke-linecap: square"/>
     </g>
     <g id="line2d_8">
      <g>
       <use xlink:href="#m39a15af097" x="217.963636" y="320.4" style="stroke: #000000; stroke-width: 0.8"/>
      </g>
     </g>
     <g id="text_4">
      <!-- 30 -->
      <g transform="translate(211.601136 334.998438)scale(0.1 -0.1)">
       <defs>
        <path id="DejaVuSans-33" d="M 2597 2516 
Q 3050 2419 3304 2112 
Q 3559 1806 3559 1356 
Q 3559 666 3084 287 
Q 2609 -91 1734 -91 
Q 1441 -91 1130 -33 
Q 819 25 488 141 
L 488 750 
Q 750 597 1062 519 
Q 1375 441 1716 441 
Q 2309 441 2620 675 
Q 2931 909 2931 1356 
Q 2931 1769 2642 2001 
Q 2353 2234 1838 2234 
L 1294 2234 
L 1294 2753 
L 1863 2753 
Q 2328 2753 2575 2939 
Q 2822 3125 2822 3475 
Q 2822 3834 2567 4026 
Q 2313 4219 1838 4219 
Q 1578 4219 1281 4162 
Q 984 4106 628 3988 
L 628 4550 
Q 988 4650 1302 4700 
Q 1616 4750 1894 4750 
Q 2613 4750 3031 4423 
Q 3450 4097 3450 3541 
Q 3450 3153 3228 2886 
Q 3006 2619 2597 2516 
z
" transform="scale(0.015625)"/>
       </defs>
       <use xlink:href="#DejaVuSans-33"/>
       <use xlink:href="#DejaVuSans-30" x="63.623047"/>
      </g>
     </g>
    </g>
    <g id="xtick_5">
     <g id="line2d_9">
      <path d="M 263.618182 320.4 
L 263.618182 43.2 
" clip-path="url(#p20689dbf0e)" style="fill: none; stroke: #b0b0b0; stroke-opacity: 0.8; stroke-width: 0.8; stroke-linecap: square"/>
     </g>
     <g id="line2d_10">
      <g>
       <use xlink:href="#m39a15af097" x="263.618182" y="320.4" style="stroke: #000000; stroke-width: 0.8"/>
      </g>
     </g>
     <g id="text_5">
      <!-- 40 -->
      <g transform="translate(257.255682 334.998438)scale(0.1 -0.1)">
       <defs>
        <path id="DejaVuSans-34" d="M 2419 4116 
L 825 1625 
L 2419 1625 
L 2419 4116 
z
M 2253 4666 
L 3047 4666 
L 3047 1625 
L 3713 1625 
L 3713 1100 
L 3047 1100 
L 3047 0 
L 2419 0 
L 2419 1100 
L 313 1100 
L 313 1709 
L 2253 4666 
z
" transform="scale(0.015625)"/>
       </defs>
       <use xlink:href="#DejaVuSans-34"/>
       <use xlink:href="#DejaVuSans-30" x="63.623047"/>
      </g>
     </g>
    </g>
    <g id="xtick_6">
     <g id="line2d_11">
      <path d="M 309.272727 320.4 
L 309.272727 43.2 
" clip-path="url(#p20689dbf0e)" style="fill: none; stroke: #b0b0b0; stroke-opacity: 0.8; stroke-width: 0.8; stroke-linecap: square"/>
     </g>
     <g id="line2d_12">
      <g>
       <use xlink:href="#m39a15af097" x="309.272727" y="320.4" style="stroke: #000000; stroke-width: 0.8"/>
      </g>
     </g>
     <g id="text_6">
      <!-- 50 -->
      <g transform="translate(302.910227 334.998438)scale(0.1 -0.1)">
       <defs>
        <path id="DejaVuSans-35" d="M 691 4666 
L 3169 4666 
L 3169 4134 
L 1269 4134 
L 1269 2991 
Q 1406 3038 1543 3061 
Q 1681 3084 1819 3084 
Q 2600 3084 3056 2656 
Q 3513 2228 3513 1497 
Q 3513 744 3044 326 
Q 2575 -91 1722 -91 
Q 1428 -91 1123 -41 
Q 819 9 494 109 
L 494 744 
Q 775 591 1075 516 
Q 1375 441 1709 441 
Q 2250 441 2565 725 
Q 2881 1009 2881 1497 
Q 2881 1984 2565 2268 
Q 2250 2553 1709 2553 
Q 1456 2553 1204 2497 
Q 953 2441 691 2322 
L 691 4666 
z
" transform="scale(0.015625)"/>
       </defs>
       <use xlink:href="#DejaVuSans-35"/>
       <use xlink:href="#DejaVuSans-30" x="63.623047"/>
      </g>
     </g>
    </g>
    <g id="xtick_7">
     <g id="line2d_13">
      <path d="M 354.927273 320.4 
L 354.927273 43.2 
" clip-path="url(#p20689dbf0e)" style="fill: none; stroke: #b0b0b0; stroke-opacity: 0.8; stroke-width: 0.8; stroke-linecap: square"/>
     </g>
     <g id="line2d_14">
      <g>
       <use xlink:href="#m39a15af097" x="354.927273" y="320.4" style="stroke: #000000; stroke-width: 0.8"/>
      </g>
     </g>
     <g id="text_7">
      <!-- 60 -->
      <g transform="translate(348.564773 334.998438)scale(0.1 -0.1)">
       <defs>
        <path id="DejaVuSans-36" d="M 2113 2584 
Q 1688 2584 1439 2293 
Q 1191 2003 1191 1497 
Q 1191 994 1439 701 
Q 1688 409 2113 409 
Q 2538 409 2786 701 
Q 3034 994 3034 1497 
Q 3034 2003 2786 2293 
Q 2538 2584 2113 2584 
z
M 3366 4563 
L 3366 3988 
Q 3128 4100 2886 4159 
Q 2644 4219 2406 4219 
Q 1781 4219 1451 3797 
Q 1122 3375 1075 2522 
Q 1259 2794 1537 2939 
Q 1816 3084 2150 3084 
Q 2853 3084 3261 2657 
Q 3669 2231 3669 1497 
Q 3669 778 3244 343 
Q 2819 -91 2113 -91 
Q 1303 -91 875 529 
Q 447 1150 447 2328 
Q 447 3434 972 4092 
Q 1497 4750 2381 4750 
Q 2619 4750 2861 4703 
Q 3103 4656 3366 4563 
z
" transform="scale(0.015625)"/>
       </defs>
       <use xlink:href="#DejaVuSans-36"/>
       <use xlink:href="#DejaVuSans-30" x="63.623047"/>
      </g>
     </g>
    </g>
    <g id="xtick_8">
     <g id="line2d_15">
      <path d="M 400.581818 320.4 
L 400.581818 43.2 
" clip-path="url(#p20689dbf0e)" style="fill: none; stroke: #b0b0b0; stroke-opacity: 0.8; stroke-width: 0.8; stroke-linecap: square"/>
     </g>
     <g id="line2d_16">
      <g>
       <use xlink:href="#m39a15af097" x="400.581818" y="320.4" style="stroke: #000000; stroke-width: 0.8"/>
      </g>
     </g>
     <g id="text_8">
      <!-- 70 -->
      <g transform="translate(394.219318 334.998438)scale(0.1 -0.1)">
       <defs>
        <path id="DejaVuSans-37" d="M 525 4666 
L 3525 4666 
L 3525 4397 
L 1831 0 
L 1172 0 
L 2766 4134 
L 525 4134 
L 525 4666 
z
" transform="scale(0.015625)"/>
       </defs>
       <use xlink:href="#DejaVuSans-37"/>
       <use xlink:href="#DejaVuSans-30" x="63.623047"/>
      </g>
     </g>
    </g>
    <g id="xtick_9">
     <g id="line2d_17">
      <path d="M 446.236364 320.4 
L 446.236364 43.2 
" clip-path="url(#p20689dbf0e)" style="fill: none; stroke: #b0b0b0; stroke-opacity: 0.8; stroke-width: 0.8; stroke-linecap: square"/>
     </g>
     <g id="line2d_18">
      <g>
       <use xlink:href="#m39a15af097" x="446.236364" y="320.4" style="stroke: #000000; stroke-width: 0.8"/>
      </g>
     </g>
     <g id="text_9">
      <!-- 80 -->
      <g transform="translate(439.873864 334.998438)scale(0.1 -0.1)">
       <defs>
        <path id="DejaVuSans-38" d="M 2034 2216 
Q 1584 2216 1326 1975 
Q 1069 1734 1069 1313 
Q 1069 891 1326 650 
Q 1584 409 2034 409 
Q 2484 409 2743 651 
Q 3003 894 3003 1313 
Q 3003 1734 2745 1975 
Q 2488 2216 2034 2216 
z
M 1403 2484 
Q 997 2584 770 2862 
Q 544 3141 544 3541 
Q 544 4100 942 4425 
Q 1341 4750 2034 4750 
Q 2731 4750 3128 4425 
Q 3525 4100 3525 3541 
Q 3525 3141 3298 2862 
Q 3072 2584 2669 2484 
Q 3125 2378 3379 2068 
Q 3634 1759 3634 1313 
Q 3634 634 3220 271 
Q 2806 -91 2034 -91 
Q 1263 -91 848 271 
Q 434 634 434 1313 
Q 434 1759 690 2068 
Q 947 2378 1403 2484 
z
M 1172 3481 
Q 1172 3119 1398 2916 
Q 1625 2713 2034 2713 
Q 2441 2713 2670 2916 
Q 2900 3119 2900 3481 
Q 2900 3844 2670 4047 
Q 2441 4250 2034 4250 
Q 1625 4250 1398 4047 
Q 1172 3844 1172 3481 
z
" transform="scale(0.015625)"/>
       </defs>
       <use xlink:href="#DejaVuSans-38"/>
       <use xlink:href="#DejaVuSans-30" x="63.623047"/>
      </g>
     </g>
    </g>
    <g id="xtick_10">
     <g id="line2d_19">
      <path d="M 491.890909 320.4 
L 491.890909 43.2 
" clip-path="url(#p20689dbf0e)" style="fill: none; stroke: #b0b0b0; stroke-opacity: 0.8; stroke-width: 0.8; stroke-linecap: square"/>
     </g>
     <g id="line2d_20">
      <g>
       <use xlink:href="#m39a15af097" x="491.890909" y="320.4" style="stroke: #000000; stroke-width: 0.8"/>
      </g>
     </g>
     <g id="text_10">
      <!-- 90 -->
      <g transform="translate(485.528409 334.998438)scale(0.1 -0.1)">
       <defs>
        <path id="DejaVuSans-39" d="M 703 97 
L 703 672 
Q 941 559 1184 500 
Q 1428 441 1663 441 
Q 2288 441 2617 861 
Q 2947 1281 2994 2138 
Q 2813 1869 2534 1725 
Q 2256 1581 1919 1581 
Q 1219 1581 811 2004 
Q 403 2428 403 3163 
Q 403 3881 828 4315 
Q 1253 4750 1959 4750 
Q 2769 4750 3195 4129 
Q 3622 3509 3622 2328 
Q 3622 1225 3098 567 
Q 2575 -91 1691 -91 
Q 1453 -91 1209 -44 
Q 966 3 703 97 
z
M 1959 2075 
Q 2384 2075 2632 2365 
Q 2881 2656 2881 3163 
Q 2881 3666 2632 3958 
Q 2384 4250 1959 4250 
Q 1534 4250 1286 3958 
Q 1038 3666 1038 3163 
Q 1038 2656 1286 2365 
Q 1534 2075 1959 2075 
z
" transform="scale(0.015625)"/>
       </defs>
       <use xlink:href="#DejaVuSans-39"/>
       <use xlink:href="#DejaVuSans-30" x="63.623047"/>
      </g>
     </g>
    </g>
    <g id="xtick_11">
     <g id="line2d_21">
      <path d="M 537.545455 320.4 
L 537.545455 43.2 
" clip-path="url(#p20689dbf0e)" style="fill: none; stroke: #b0b0b0; stroke-opacity: 0.8; stroke-width: 0.8; stroke-linecap: square"/>
     </g>
     <g id="line2d_22">
      <g>
       <use xlink:href="#m39a15af097" x="537.545455" y="320.4" style="stroke: #000000; stroke-width: 0.8"/>
      </g>
     </g>
     <g id="text_11">
      <!-- 100 -->
      <g transform="translate(528.001705 334.998438)scale(0.1 -0.1)">
       <use xlink:href="#DejaVuSans-31"/>
       <use xlink:href="#DejaVuSans-30" x="63.623047"/>
       <use xlink:href="#DejaVuSans-30" x="127.246094"/>
      </g>
     </g>
    </g>
    <g id="xtick_12">
     <g id="line2d_23">
      <path d="M 583.2 320.4 
L 583.2 43.2 
" clip-path="url(#p20689dbf0e)" style="fill: none; stroke: #b0b0b0; stroke-opacity: 0.8; stroke-width: 0.8; stroke-linecap: square"/>
     </g>
     <g id="line2d_24">
      <g>
       <use xlink:href="#m39a15af097" x="583.2" y="320.4" style="stroke: #000000; stroke-width: 0.8"/>
      </g>
     </g>
     <g id="text_12">
      <!-- 110 -->
      <g transform="translate(573.65625 334.998438)scale(0.1 -0.1)">
       <use xlink:href="#DejaVuSans-31"/>
       <use xlink:href="#DejaVuSans-31" x="63.623047"/>
       <use xlink:href="#DejaVuSans-30" x="127.246094"/>
      </g>
     </g>
    </g>
    <g id="xtick_13">
     <g id="line2d_25">
      <path d="M 103.827273 320.4 
L 103.827273 43.2 
" clip-path="url(#p20689dbf0e)" style="fill: none; stroke-dasharray: 2.96,1.28; stroke-dashoffset: 0; stroke: #b0b0b0; stroke-opacity: 0.8; stroke-width: 0.8"/>
     </g>
     <g id="line2d_26">
      <defs>
       <path id="mcb9ed3640a" d="M 0 0 
L 0 2 
" style="stroke: #000000; stroke-width: 0.6"/>
      </defs>
      <g>
       <use xlink:href="#mcb9ed3640a" x="103.827273" y="320.4" style="stroke: #000000; stroke-width: 0.6"/>
      </g>
     </g>
    </g>
    <g id="xtick_14">
     <g id="line2d_27">
      <path d="M 149.481818 320.4 
L 149.481818 43.2 
" clip-path="url(#p20689dbf0e)" style="fill: none; stroke-dasharray: 2.96,1.28; stroke-dashoffset: 0; stroke: #b0b0b0; stroke-opacity: 0.8; stroke-width: 0.8"/>
     </g>
     <g id="line2d_28">
      <g>
       <use xlink:href="#mcb9ed3640a" x="149.481818" y="320.4" style="stroke: #000000; stroke-width: 0.6"/>
      </g>
     </g>
    </g>
    <g id="xtick_15">
     <g id="line2d_29">
      <path d="M 195.136364 320.4 
L 195.136364 43.2 
" clip-path="url(#p20689dbf0e)" style="fill: none; stroke-dasharray: 2.96,1.28; stroke-dashoffset: 0; stroke: #b0b0b0; stroke-opacity: 0.8; stroke-width: 0.8"/>
     </g>
     <g id="line2d_30">
      <g>
       <use xlink:href="#mcb9ed3640a" x="195.136364" y="320.4" style="stroke: #000000; stroke-width: 0.6"/>
      </g>
     </g>
    </g>
    <g id="xtick_16">
     <g id="line2d_31">
      <path d="M 240.790909 320.4 
L 240.790909 43.2 
" clip-path="url(#p20689dbf0e)" style="fill: none; stroke-dasharray: 2.96,1.28; stroke-dashoffset: 0; stroke: #b0b0b0; stroke-opacity: 0.8; stroke-width: 0.8"/>
     </g>
     <g id="line2d_32">
      <g>
       <use xlink:href="#mcb9ed3640a" x="240.790909" y="320.4" style="stroke: #000000; stroke-width: 0.6"/>
      </g>
     </g>
    </g>
    <g id="xtick_17">
     <g id="line2d_33">
      <path d="M 286.445455 320.4 
L 286.445455 43.2 
" clip-path="url(#p20689dbf0e)" style="fill: none; stroke-dasharray: 2.96,1.28; stroke-dashoffset: 0; stroke: #b0b0b0; stroke-opacity: 0.8; stroke-width: 0.8"/>
     </g>
     <g id="line2d_34">
      <g>
       <use xlink:href="#mcb9ed3640a" x="286.445455" y="320.4" style="stroke: #000000; stroke-width: 0.6"/>
      </g>
     </g>
    </g>
    <g id="xtick_18">
     <g id="line2d_35">
      <path d="M 332.1 320.4 
L 332.1 43.2 
" clip-path="url(#p20689dbf0e)" style="fill: none; stroke-dasharray: 2.96,1.28; stroke-dashoffset: 0; stroke: #b0b0b0; stroke-opacity: 0.8; stroke-width: 0.8"/>
     </g>
     <g id="line2d_36">
      <g>
       <use xlink:href="#mcb9ed3640a" x="332.1" y="320.4" style="stroke: #000000; stroke-width: 0.6"/>
      </g>
     </g>
    </g>
    <g id="xtick_19">
     <g id="line2d_37">
      <path d="M 377.754545 320.4 
L 377.754545 43.2 
" clip-path="url(#p20689dbf0e)" style="fill: none; stroke-dasharray: 2.96,1.28; stroke-dashoffset: 0; stroke: #b0b0b0; stroke-opacity: 0.8; stroke-width: 0.8"/>
     </g>
     <g id="line2d_38">
      <g>
       <use xlink:href="#mcb9ed3640a" x="377.754545" y="320.4" style="stroke: #000000; stroke-width: 0.6"/>
      </g>
     </g>
    </g>
    <g id="xtick_20">
     <g id="line2d_39">
      <path d="M 423.409091 320.4 
L 423.409091 43.2 
" clip-path="url(#p20689dbf0e)" style="fill: none; stroke-dasharray: 2.96,1.28; stroke-dashoffset: 0; stroke: #b0b0b0; stroke-opacity: 0.8; stroke-width: 0.8"/>
     </g>
     <g id="line2d_40">
      <g>
       <use xlink:href="#mcb9ed3640a" x="423.409091" y="320.4" style="stroke: #000000; stroke-width: 0.6"/>
      </g>
     </g>
    </g>
    <g id="xtick_21">
     <g id="line2d_41">
      <path d="M 469.063636 320.4 
L 469.063636 43.2 
" clip-path="url(#p20689dbf0e)" style="fill: none; stroke-dasharray: 2.96,1.28; stroke-dashoffset: 0; stroke: #b0b0b0; stroke-opacity: 0.8; stroke-width: 0.8"/>
     </g>
     <g id="line2d_42">
      <g>
       <use xlink:href="#mcb9ed3640a" x="469.063636" y="320.4" style="stroke: #000000; stroke-width: 0.6"/>
      </g>
     </g>
    </g>
    <g id="xtick_22">
     <g id="line2d_43">
      <path d="M 514.718182 320.4 
L 514.718182 43.2 
" clip-path="url(#p20689dbf0e)" style="fill: none; stroke-dasharray: 2.96,1.28; stroke-dashoffset: 0; stroke: #b0b0b0; stroke-opacity: 0.8; stroke-width: 0.8"/>
     </g>
     <g id="line2d_44">
      <g>
       <use xlink:href="#mcb9ed3640a" x="514.718182" y="320.4" style="stroke: #000000; stroke-width: 0.6"/>
      </g>
     </g>
    </g>
    <g id="xtick_23">
     <g id="line2d_45">
      <path d="M 560.372727 320.4 
L 560.372727 43.2 
" clip-path="url(#p20689dbf0e)" style="fill: none; stroke-dasharray: 2.96,1.28; stroke-dashoffset: 0; stroke: #b0b0b0; stroke-opacity: 0.8; stroke-width: 0.8"/>
     </g>
     <g id="line2d_46">
      <g>
       <use xlink:href="#mcb9ed3640a" x="560.372727" y="320.4" style="stroke: #000000; stroke-width: 0.6"/>
      </g>
     </g>
    </g>
    <g id="text_13">
     <!-- Время с начала эксперимента [с] -->
     <g transform="translate(243.895313 348.676562)scale(0.1 -0.1)">
      <defs>
       <path id="DejaVuSans-412" d="M 1259 2228 
L 1259 519 
L 2272 519 
Q 2781 519 3026 730 
Q 3272 941 3272 1375 
Q 3272 1813 3026 2020 
Q 2781 2228 2272 2228 
L 1259 2228 
z
M 1259 4147 
L 1259 2741 
L 2194 2741 
Q 2656 2741 2882 2914 
Q 3109 3088 3109 3444 
Q 3109 3797 2882 3972 
Q 2656 4147 2194 4147 
L 1259 4147 
z
M 628 4666 
L 2241 4666 
Q 2963 4666 3353 4366 
Q 3744 4066 3744 3513 
Q 3744 3084 3544 2831 
Q 3344 2578 2956 2516 
Q 3422 2416 3680 2098 
Q 3938 1781 3938 1306 
Q 3938 681 3513 340 
Q 3088 0 2303 0 
L 628 0 
L 628 4666 
z
" transform="scale(0.015625)"/>
       <path id="DejaVuSans-440" d="M 1159 525 
L 1159 -1331 
L 581 -1331 
L 581 3500 
L 1159 3500 
L 1159 2969 
Q 1341 3281 1617 3432 
Q 1894 3584 2278 3584 
Q 2916 3584 3314 3078 
Q 3713 2572 3713 1747 
Q 3713 922 3314 415 
Q 2916 -91 2278 -91 
Q 1894 -91 1617 61 
Q 1341 213 1159 525 
z
M 3116 1747 
Q 3116 2381 2855 2742 
Q 2594 3103 2138 3103 
Q 1681 3103 1420 2742 
Q 1159 2381 1159 1747 
Q 1159 1113 1420 752 
Q 1681 391 2138 391 
Q 2594 391 2855 752 
Q 3116 1113 3116 1747 
z
" transform="scale(0.015625)"/>
       <path id="DejaVuSans-435" d="M 3597 1894 
L 3597 1613 
L 953 1613 
Q 991 1019 1311 708 
Q 1631 397 2203 397 
Q 2534 397 2845 478 
Q 3156 559 3463 722 
L 3463 178 
Q 3153 47 2828 -22 
Q 2503 -91 2169 -91 
Q 1331 -91 842 396 
Q 353 884 353 1716 
Q 353 2575 817 3079 
Q 1281 3584 2069 3584 
Q 2775 3584 3186 3129 
Q 3597 2675 3597 1894 
z
M 3022 2063 
Q 3016 2534 2758 2815 
Q 2500 3097 2075 3097 
Q 1594 3097 1305 2825 
Q 1016 2553 972 2059 
L 3022 2063 
z
" transform="scale(0.015625)"/>
       <path id="DejaVuSans-43c" d="M 581 3500 
L 1422 3500 
L 2416 1156 
L 3413 3500 
L 4247 3500 
L 4247 0 
L 3669 0 
L 3669 2950 
L 2703 672 
L 2128 672 
L 1159 2950 
L 1159 0 
L 581 0 
L 581 3500 
z
" transform="scale(0.015625)"/>
       <path id="DejaVuSans-44f" d="M 1181 2491 
Q 1181 2231 1381 2084 
Q 1581 1938 1953 1938 
L 2728 1938 
L 2728 3041 
L 1953 3041 
Q 1581 3041 1381 2897 
Q 1181 2753 1181 2491 
z
M 363 0 
L 1431 1534 
Q 1069 1616 828 1830 
Q 588 2044 588 2491 
Q 588 2997 923 3248 
Q 1259 3500 1938 3500 
L 3306 3500 
L 3306 0 
L 2728 0 
L 2728 1478 
L 2013 1478 
L 981 0 
L 363 0 
z
" transform="scale(0.015625)"/>
       <path id="DejaVuSans-20" transform="scale(0.015625)"/>
       <path id="DejaVuSans-441" d="M 3122 3366 
L 3122 2828 
Q 2878 2963 2633 3030 
Q 2388 3097 2138 3097 
Q 1578 3097 1268 2742 
Q 959 2388 959 1747 
Q 959 1106 1268 751 
Q 1578 397 2138 397 
Q 2388 397 2633 464 
Q 2878 531 3122 666 
L 3122 134 
Q 2881 22 2623 -34 
Q 2366 -91 2075 -91 
Q 1284 -91 818 406 
Q 353 903 353 1747 
Q 353 2603 823 3093 
Q 1294 3584 2113 3584 
Q 2378 3584 2631 3529 
Q 2884 3475 3122 3366 
z
" transform="scale(0.015625)"/>
       <path id="DejaVuSans-43d" d="M 581 3500 
L 1159 3500 
L 1159 2072 
L 3025 2072 
L 3025 3500 
L 3603 3500 
L 3603 0 
L 3025 0 
L 3025 1613 
L 1159 1613 
L 1159 0 
L 581 0 
L 581 3500 
z
" transform="scale(0.015625)"/>
       <path id="DejaVuSans-430" d="M 2194 1759 
Q 1497 1759 1228 1600 
Q 959 1441 959 1056 
Q 959 750 1161 570 
Q 1363 391 1709 391 
Q 2188 391 2477 730 
Q 2766 1069 2766 1631 
L 2766 1759 
L 2194 1759 
z
M 3341 1997 
L 3341 0 
L 2766 0 
L 2766 531 
Q 2569 213 2275 61 
Q 1981 -91 1556 -91 
Q 1019 -91 701 211 
Q 384 513 384 1019 
Q 384 1609 779 1909 
Q 1175 2209 1959 2209 
L 2766 2209 
L 2766 2266 
Q 2766 2663 2505 2880 
Q 2244 3097 1772 3097 
Q 1472 3097 1187 3025 
Q 903 2953 641 2809 
L 641 3341 
Q 956 3463 1253 3523 
Q 1550 3584 1831 3584 
Q 2591 3584 2966 3190 
Q 3341 2797 3341 1997 
z
" transform="scale(0.015625)"/>
       <path id="DejaVuSans-447" d="M 2625 0 
L 2625 1472 
L 1553 1472 
Q 1075 1472 756 1769 
Q 469 2038 469 2613 
L 469 3500 
L 1044 3500 
L 1044 2666 
Q 1044 2300 1206 2116 
Q 1372 1931 1697 1931 
L 2625 1931 
L 2625 3500 
L 3200 3500 
L 3200 0 
L 2625 0 
z
" transform="scale(0.015625)"/>
       <path id="DejaVuSans-43b" d="M 238 0 
L 238 478 
Q 806 566 981 959 
Q 1194 1513 1194 2928 
L 1194 3500 
L 3559 3500 
L 3559 0 
L 2984 0 
L 2984 3041 
L 1769 3041 
L 1769 2694 
Q 1769 1344 1494 738 
Q 1200 91 238 0 
z
" transform="scale(0.015625)"/>
       <path id="DejaVuSans-44d" d="M 353 666 
Q 847 397 1338 397 
Q 1797 397 2125 664 
Q 2453 931 2513 1613 
L 738 1613 
L 738 2072 
L 2494 2072 
Q 2456 2400 2207 2748 
Q 1959 3097 1338 3097 
Q 856 3097 353 2828 
L 353 3366 
Q 844 3584 1363 3584 
Q 2181 3584 2651 3089 
Q 3122 2594 3122 1747 
Q 3122 903 2664 406 
Q 2206 -91 1403 -91 
Q 813 -91 353 134 
L 353 666 
z
" transform="scale(0.015625)"/>
       <path id="DejaVuSans-43a" d="M 581 3500 
L 1153 3500 
L 1153 1856 
L 2775 3500 
L 3481 3500 
L 2144 2147 
L 3653 0 
L 3009 0 
L 1769 1766 
L 1153 1141 
L 1153 0 
L 581 0 
L 581 3500 
z
" transform="scale(0.015625)"/>
       <path id="DejaVuSans-43f" d="M 3603 3500 
L 3603 0 
L 3025 0 
L 3025 3041 
L 1159 3041 
L 1159 0 
L 581 0 
L 581 3500 
L 3603 3500 
z
" transform="scale(0.015625)"/>
       <path id="DejaVuSans-438" d="M 3578 3500 
L 3578 0 
L 3006 0 
L 3006 2809 
L 1319 0 
L 581 0 
L 581 3500 
L 1153 3500 
L 1153 697 
L 2838 3500 
L 3578 3500 
z
" transform="scale(0.015625)"/>
       <path id="DejaVuSans-442" d="M 188 3500 
L 3541 3500 
L 3541 3041 
L 2147 3041 
L 2147 0 
L 1581 0 
L 1581 3041 
L 188 3041 
L 188 3500 
z
" transform="scale(0.015625)"/>
       <path id="DejaVuSans-5b" d="M 550 4863 
L 1875 4863 
L 1875 4416 
L 1125 4416 
L 1125 -397 
L 1875 -397 
L 1875 -844 
L 550 -844 
L 550 4863 
z
" transform="scale(0.015625)"/>
       <path id="DejaVuSans-5d" d="M 1947 4863 
L 1947 -844 
L 622 -844 
L 622 -397 
L 1369 -397 
L 1369 4416 
L 622 4416 
L 622 4863 
L 1947 4863 
z
" transform="scale(0.015625)"/>
      </defs>
      <use xlink:href="#DejaVuSans-412"/>
      <use xlink:href="#DejaVuSans-440" x="68.603516"/>
      <use xlink:href="#DejaVuSans-435" x="132.080078"/>
      <use xlink:href="#DejaVuSans-43c" x="193.603516"/>
      <use xlink:href="#DejaVuSans-44f" x="269.042969"/>
      <use xlink:href="#DejaVuSans-20" x="329.199219"/>
      <use xlink:href="#DejaVuSans-441" x="360.986328"/>
      <use xlink:href="#DejaVuSans-20" x="415.966797"/>
      <use xlink:href="#DejaVuSans-43d" x="447.753906"/>
      <use xlink:href="#DejaVuSans-430" x="513.134766"/>
      <use xlink:href="#DejaVuSans-447" x="574.414062"/>
      <use xlink:href="#DejaVuSans-430" x="633.496094"/>
      <use xlink:href="#DejaVuSans-43b" x="694.775391"/>
      <use xlink:href="#DejaVuSans-430" x="758.691406"/>
      <use xlink:href="#DejaVuSans-20" x="819.970703"/>
      <use xlink:href="#DejaVuSans-44d" x="851.757812"/>
      <use xlink:href="#DejaVuSans-43a" x="906.640625"/>
      <use xlink:href="#DejaVuSans-441" x="967.041016"/>
      <use xlink:href="#DejaVuSans-43f" x="1022.021484"/>
      <use xlink:href="#DejaVuSans-435" x="1087.402344"/>
      <use xlink:href="#DejaVuSans-440" x="1148.925781"/>
      <use xlink:href="#DejaVuSans-438" x="1212.402344"/>
      <use xlink:href="#DejaVuSans-43c" x="1277.392578"/>
      <use xlink:href="#DejaVuSans-435" x="1352.832031"/>
      <use xlink:href="#DejaVuSans-43d" x="1414.355469"/>
      <use xlink:href="#DejaVuSans-442" x="1479.736328"/>
      <use xlink:href="#DejaVuSans-430" x="1537.988281"/>
      <use xlink:href="#DejaVuSans-20" x="1599.267578"/>
      <use xlink:href="#DejaVuSans-5b" x="1631.054688"/>
      <use xlink:href="#DejaVuSans-441" x="1670.068359"/>
      <use xlink:href="#DejaVuSans-5d" x="1725.048828"/>
     </g>
    </g>
   </g>
   <g id="matplotlib.axis_2">
    <g id="ytick_1">
     <g id="line2d_47">
      <path d="M 81 320.4 
L 583.2 320.4 
" clip-path="url(#p20689dbf0e)" style="fill: none; stroke: #b0b0b0; stroke-opacity: 0.8; stroke-width: 0.8; stroke-linecap: square"/>
     </g>
     <g id="line2d_48">
      <defs>
       <path id="mc3da9b210a" d="M 0 0 
L -3.5 0 
" style="stroke: #000000; stroke-width: 0.8"/>
      </defs>
      <g>
       <use xlink:href="#mc3da9b210a" x="81" y="320.4" style="stroke: #000000; stroke-width: 0.8"/>
      </g>
     </g>
     <g id="text_14">
      <!-- 0.0 -->
      <g transform="translate(58.096875 324.199219)scale(0.1 -0.1)">
       <defs>
        <path id="DejaVuSans-2e" d="M 684 794 
L 1344 794 
L 1344 0 
L 684 0 
L 684 794 
z
" transform="scale(0.015625)"/>
       </defs>
       <use xlink:href="#DejaVuSans-30"/>
       <use xlink:href="#DejaVuSans-2e" x="63.623047"/>
       <use xlink:href="#DejaVuSans-30" x="95.410156"/>
      </g>
     </g>
    </g>
    <g id="ytick_2">
     <g id="line2d_49">
      <path d="M 81 285.75 
L 583.2 285.75 
" clip-path="url(#p20689dbf0e)" style="fill: none; stroke: #b0b0b0; stroke-opacity: 0.8; stroke-width: 0.8; stroke-linecap: square"/>
     </g>
     <g id="line2d_50">
      <g>
       <use xlink:href="#mc3da9b210a" x="81" y="285.75" style="stroke: #000000; stroke-width: 0.8"/>
      </g>
     </g>
     <g id="text_15">
      <!-- 0.5 -->
      <g transform="translate(58.096875 289.549219)scale(0.1 -0.1)">
       <use xlink:href="#DejaVuSans-30"/>
       <use xlink:href="#DejaVuSans-2e" x="63.623047"/>
       <use xlink:href="#DejaVuSans-35" x="95.410156"/>
      </g>
     </g>
    </g>
    <g id="ytick_3">
     <g id="line2d_51">
      <path d="M 81 251.1 
L 583.2 251.1 
" clip-path="url(#p20689dbf0e)" style="fill: none; stroke: #b0b0b0; stroke-opacity: 0.8; stroke-width: 0.8; stroke-linecap: square"/>
     </g>
     <g id="line2d_52">
      <g>
       <use xlink:href="#mc3da9b210a" x="81" y="251.1" style="stroke: #000000; stroke-width: 0.8"/>
      </g>
     </g>
     <g id="text_16">
      <!-- 1.0 -->
      <g transform="translate(58.096875 254.899219)scale(0.1 -0.1)">
       <use xlink:href="#DejaVuSans-31"/>
       <use xlink:href="#DejaVuSans-2e" x="63.623047"/>
       <use xlink:href="#DejaVuSans-30" x="95.410156"/>
      </g>
     </g>
    </g>
    <g id="ytick_4">
     <g id="line2d_53">
      <path d="M 81 216.45 
L 583.2 216.45 
" clip-path="url(#p20689dbf0e)" style="fill: none; stroke: #b0b0b0; stroke-opacity: 0.8; stroke-width: 0.8; stroke-linecap: square"/>
     </g>
     <g id="line2d_54">
      <g>
       <use xlink:href="#mc3da9b210a" x="81" y="216.45" style="stroke: #000000; stroke-width: 0.8"/>
      </g>
     </g>
     <g id="text_17">
      <!-- 1.5 -->
      <g transform="translate(58.096875 220.249219)scale(0.1 -0.1)">
       <use xlink:href="#DejaVuSans-31"/>
       <use xlink:href="#DejaVuSans-2e" x="63.623047"/>
       <use xlink:href="#DejaVuSans-35" x="95.410156"/>
      </g>
     </g>
    </g>
    <g id="ytick_5">
     <g id="line2d_55">
      <path d="M 81 181.8 
L 583.2 181.8 
" clip-path="url(#p20689dbf0e)" style="fill: none; stroke: #b0b0b0; stroke-opacity: 0.8; stroke-width: 0.8; stroke-linecap: square"/>
     </g>
     <g id="line2d_56">
      <g>
       <use xlink:href="#mc3da9b210a" x="81" y="181.8" style="stroke: #000000; stroke-width: 0.8"/>
      </g>
     </g>
     <g id="text_18">
      <!-- 2.0 -->
      <g transform="translate(58.096875 185.599219)scale(0.1 -0.1)">
       <use xlink:href="#DejaVuSans-32"/>
       <use xlink:href="#DejaVuSans-2e" x="63.623047"/>
       <use xlink:href="#DejaVuSans-30" x="95.410156"/>
      </g>
     </g>
    </g>
    <g id="ytick_6">
     <g id="line2d_57">
      <path d="M 81 147.15 
L 583.2 147.15 
" clip-path="url(#p20689dbf0e)" style="fill: none; stroke: #b0b0b0; stroke-opacity: 0.8; stroke-width: 0.8; stroke-linecap: square"/>
     </g>
     <g id="line2d_58">
      <g>
       <use xlink:href="#mc3da9b210a" x="81" y="147.15" style="stroke: #000000; stroke-width: 0.8"/>
      </g>
     </g>
     <g id="text_19">
      <!-- 2.5 -->
      <g transform="translate(58.096875 150.949219)scale(0.1 -0.1)">
       <use xlink:href="#DejaVuSans-32"/>
       <use xlink:href="#DejaVuSans-2e" x="63.623047"/>
       <use xlink:href="#DejaVuSans-35" x="95.410156"/>
      </g>
     </g>
    </g>
    <g id="ytick_7">
     <g id="line2d_59">
      <path d="M 81 112.5 
L 583.2 112.5 
" clip-path="url(#p20689dbf0e)" style="fill: none; stroke: #b0b0b0; stroke-opacity: 0.8; stroke-width: 0.8; stroke-linecap: square"/>
     </g>
     <g id="line2d_60">
      <g>
       <use xlink:href="#mc3da9b210a" x="81" y="112.5" style="stroke: #000000; stroke-width: 0.8"/>
      </g>
     </g>
     <g id="text_20">
      <!-- 3.0 -->
      <g transform="translate(58.096875 116.299219)scale(0.1 -0.1)">
       <use xlink:href="#DejaVuSans-33"/>
       <use xlink:href="#DejaVuSans-2e" x="63.623047"/>
       <use xlink:href="#DejaVuSans-30" x="95.410156"/>
      </g>
     </g>
    </g>
    <g id="ytick_8">
     <g id="line2d_61">
      <path d="M 81 77.85 
L 583.2 77.85 
" clip-path="url(#p20689dbf0e)" style="fill: none; stroke: #b0b0b0; stroke-opacity: 0.8; stroke-width: 0.8; stroke-linecap: square"/>
     </g>
     <g id="line2d_62">
      <g>
       <use xlink:href="#mc3da9b210a" x="81" y="77.85" style="stroke: #000000; stroke-width: 0.8"/>
      </g>
     </g>
     <g id="text_21">
      <!-- 3.5 -->
      <g transform="translate(58.096875 81.649219)scale(0.1 -0.1)">
       <use xlink:href="#DejaVuSans-33"/>
       <use xlink:href="#DejaVuSans-2e" x="63.623047"/>
       <use xlink:href="#DejaVuSans-35" x="95.410156"/>
      </g>
     </g>
    </g>
    <g id="ytick_9">
     <g id="line2d_63">
      <path d="M 81 43.2 
L 583.2 43.2 
" clip-path="url(#p20689dbf0e)" style="fill: none; stroke: #b0b0b0; stroke-opacity: 0.8; stroke-width: 0.8; stroke-linecap: square"/>
     </g>
     <g id="line2d_64">
      <g>
       <use xlink:href="#mc3da9b210a" x="81" y="43.2" style="stroke: #000000; stroke-width: 0.8"/>
      </g>
     </g>
     <g id="text_22">
      <!-- 4.0 -->
      <g transform="translate(58.096875 46.999219)scale(0.1 -0.1)">
       <use xlink:href="#DejaVuSans-34"/>
       <use xlink:href="#DejaVuSans-2e" x="63.623047"/>
       <use xlink:href="#DejaVuSans-30" x="95.410156"/>
      </g>
     </g>
    </g>
    <g id="ytick_10">
     <g id="line2d_65">
      <path d="M 81 313.47 
L 583.2 313.47 
" clip-path="url(#p20689dbf0e)" style="fill: none; stroke-dasharray: 2.96,1.28; stroke-dashoffset: 0; stroke: #b0b0b0; stroke-opacity: 0.8; stroke-width: 0.8"/>
     </g>
     <g id="line2d_66">
      <defs>
       <path id="mc52e73f746" d="M 0 0 
L -2 0 
" style="stroke: #000000; stroke-width: 0.6"/>
      </defs>
      <g>
       <use xlink:href="#mc52e73f746" x="81" y="313.47" style="stroke: #000000; stroke-width: 0.6"/>
      </g>
     </g>
    </g>
    <g id="ytick_11">
     <g id="line2d_67">
      <path d="M 81 306.54 
L 583.2 306.54 
" clip-path="url(#p20689dbf0e)" style="fill: none; stroke-dasharray: 2.96,1.28; stroke-dashoffset: 0; stroke: #b0b0b0; stroke-opacity: 0.8; stroke-width: 0.8"/>
     </g>
     <g id="line2d_68">
      <g>
       <use xlink:href="#mc52e73f746" x="81" y="306.54" style="stroke: #000000; stroke-width: 0.6"/>
      </g>
     </g>
    </g>
    <g id="ytick_12">
     <g id="line2d_69">
      <path d="M 81 299.61 
L 583.2 299.61 
" clip-path="url(#p20689dbf0e)" style="fill: none; stroke-dasharray: 2.96,1.28; stroke-dashoffset: 0; stroke: #b0b0b0; stroke-opacity: 0.8; stroke-width: 0.8"/>
     </g>
     <g id="line2d_70">
      <g>
       <use xlink:href="#mc52e73f746" x="81" y="299.61" style="stroke: #000000; stroke-width: 0.6"/>
      </g>
     </g>
    </g>
    <g id="ytick_13">
     <g id="line2d_71">
      <path d="M 81 292.68 
L 583.2 292.68 
" clip-path="url(#p20689dbf0e)" style="fill: none; stroke-dasharray: 2.96,1.28; stroke-dashoffset: 0; stroke: #b0b0b0; stroke-opacity: 0.8; stroke-width: 0.8"/>
     </g>
     <g id="line2d_72">
      <g>
       <use xlink:href="#mc52e73f746" x="81" y="292.68" style="stroke: #000000; stroke-width: 0.6"/>
      </g>
     </g>
    </g>
    <g id="ytick_14">
     <g id="line2d_73">
      <path d="M 81 278.82 
L 583.2 278.82 
" clip-path="url(#p20689dbf0e)" style="fill: none; stroke-dasharray: 2.96,1.28; stroke-dashoffset: 0; stroke: #b0b0b0; stroke-opacity: 0.8; stroke-width: 0.8"/>
     </g>
     <g id="line2d_74">
      <g>
       <use xlink:href="#mc52e73f746" x="81" y="278.82" style="stroke: #000000; stroke-width: 0.6"/>
      </g>
     </g>
    </g>
    <g id="ytick_15">
     <g id="line2d_75">
      <path d="M 81 271.89 
L 583.2 271.89 
" clip-path="url(#p20689dbf0e)" style="fill: none; stroke-dasharray: 2.96,1.28; stroke-dashoffset: 0; stroke: #b0b0b0; stroke-opacity: 0.8; stroke-width: 0.8"/>
     </g>
     <g id="line2d_76">
      <g>
       <use xlink:href="#mc52e73f746" x="81" y="271.89" style="stroke: #000000; stroke-width: 0.6"/>
      </g>
     </g>
    </g>
    <g id="ytick_16">
     <g id="line2d_77">
      <path d="M 81 264.96 
L 583.2 264.96 
" clip-path="url(#p20689dbf0e)" style="fill: none; stroke-dasharray: 2.96,1.28; stroke-dashoffset: 0; stroke: #b0b0b0; stroke-opacity: 0.8; stroke-width: 0.8"/>
     </g>
     <g id="line2d_78">
      <g>
       <use xlink:href="#mc52e73f746" x="81" y="264.96" style="stroke: #000000; stroke-width: 0.6"/>
      </g>
     </g>
    </g>
    <g id="ytick_17">
     <g id="line2d_79">
      <path d="M 81 258.03 
L 583.2 258.03 
" clip-path="url(#p20689dbf0e)" style="fill: none; stroke-dasharray: 2.96,1.28; stroke-dashoffset: 0; stroke: #b0b0b0; stroke-opacity: 0.8; stroke-width: 0.8"/>
     </g>
     <g id="line2d_80">
      <g>
       <use xlink:href="#mc52e73f746" x="81" y="258.03" style="stroke: #000000; stroke-width: 0.6"/>
      </g>
     </g>
    </g>
    <g id="ytick_18">
     <g id="line2d_81">
      <path d="M 81 244.17 
L 583.2 244.17 
" clip-path="url(#p20689dbf0e)" style="fill: none; stroke-dasharray: 2.96,1.28; stroke-dashoffset: 0; stroke: #b0b0b0; stroke-opacity: 0.8; stroke-width: 0.8"/>
     </g>
     <g id="line2d_82">
      <g>
       <use xlink:href="#mc52e73f746" x="81" y="244.17" style="stroke: #000000; stroke-width: 0.6"/>
      </g>
     </g>
    </g>
    <g id="ytick_19">
     <g id="line2d_83">
      <path d="M 81 237.24 
L 583.2 237.24 
" clip-path="url(#p20689dbf0e)" style="fill: none; stroke-dasharray: 2.96,1.28; stroke-dashoffset: 0; stroke: #b0b0b0; stroke-opacity: 0.8; stroke-width: 0.8"/>
     </g>
     <g id="line2d_84">
      <g>
       <use xlink:href="#mc52e73f746" x="81" y="237.24" style="stroke: #000000; stroke-width: 0.6"/>
      </g>
     </g>
    </g>
    <g id="ytick_20">
     <g id="line2d_85">
      <path d="M 81 230.31 
L 583.2 230.31 
" clip-path="url(#p20689dbf0e)" style="fill: none; stroke-dasharray: 2.96,1.28; stroke-dashoffset: 0; stroke: #b0b0b0; stroke-opacity: 0.8; stroke-width: 0.8"/>
     </g>
     <g id="line2d_86">
      <g>
       <use xlink:href="#mc52e73f746" x="81" y="230.31" style="stroke: #000000; stroke-width: 0.6"/>
      </g>
     </g>
    </g>
    <g id="ytick_21">
     <g id="line2d_87">
      <path d="M 81 223.38 
L 583.2 223.38 
" clip-path="url(#p20689dbf0e)" style="fill: none; stroke-dasharray: 2.96,1.28; stroke-dashoffset: 0; stroke: #b0b0b0; stroke-opacity: 0.8; stroke-width: 0.8"/>
     </g>
     <g id="line2d_88">
      <g>
       <use xlink:href="#mc52e73f746" x="81" y="223.38" style="stroke: #000000; stroke-width: 0.6"/>
      </g>
     </g>
    </g>
    <g id="ytick_22">
     <g id="line2d_89">
      <path d="M 81 209.52 
L 583.2 209.52 
" clip-path="url(#p20689dbf0e)" style="fill: none; stroke-dasharray: 2.96,1.28; stroke-dashoffset: 0; stroke: #b0b0b0; stroke-opacity: 0.8; stroke-width: 0.8"/>
     </g>
     <g id="line2d_90">
      <g>
       <use xlink:href="#mc52e73f746" x="81" y="209.52" style="stroke: #000000; stroke-width: 0.6"/>
      </g>
     </g>
    </g>
    <g id="ytick_23">
     <g id="line2d_91">
      <path d="M 81 202.59 
L 583.2 202.59 
" clip-path="url(#p20689dbf0e)" style="fill: none; stroke-dasharray: 2.96,1.28; stroke-dashoffset: 0; stroke: #b0b0b0; stroke-opacity: 0.8; stroke-width: 0.8"/>
     </g>
     <g id="line2d_92">
      <g>
       <use xlink:href="#mc52e73f746" x="81" y="202.59" style="stroke: #000000; stroke-width: 0.6"/>
      </g>
     </g>
    </g>
    <g id="ytick_24">
     <g id="line2d_93">
      <path d="M 81 195.66 
L 583.2 195.66 
" clip-path="url(#p20689dbf0e)" style="fill: none; stroke-dasharray: 2.96,1.28; stroke-dashoffset: 0; stroke: #b0b0b0; stroke-opacity: 0.8; stroke-width: 0.8"/>
     </g>
     <g id="line2d_94">
      <g>
       <use xlink:href="#mc52e73f746" x="81" y="195.66" style="stroke: #000000; stroke-width: 0.6"/>
      </g>
     </g>
    </g>
    <g id="ytick_25">
     <g id="line2d_95">
      <path d="M 81 188.73 
L 583.2 188.73 
" clip-path="url(#p20689dbf0e)" style="fill: none; stroke-dasharray: 2.96,1.28; stroke-dashoffset: 0; stroke: #b0b0b0; stroke-opacity: 0.8; stroke-width: 0.8"/>
     </g>
     <g id="line2d_96">
      <g>
       <use xlink:href="#mc52e73f746" x="81" y="188.73" style="stroke: #000000; stroke-width: 0.6"/>
      </g>
     </g>
    </g>
    <g id="ytick_26">
     <g id="line2d_97">
      <path d="M 81 174.87 
L 583.2 174.87 
" clip-path="url(#p20689dbf0e)" style="fill: none; stroke-dasharray: 2.96,1.28; stroke-dashoffset: 0; stroke: #b0b0b0; stroke-opacity: 0.8; stroke-width: 0.8"/>
     </g>
     <g id="line2d_98">
      <g>
       <use xlink:href="#mc52e73f746" x="81" y="174.87" style="stroke: #000000; stroke-width: 0.6"/>
      </g>
     </g>
    </g>
    <g id="ytick_27">
     <g id="line2d_99">
      <path d="M 81 167.94 
L 583.2 167.94 
" clip-path="url(#p20689dbf0e)" style="fill: none; stroke-dasharray: 2.96,1.28; stroke-dashoffset: 0; stroke: #b0b0b0; stroke-opacity: 0.8; stroke-width: 0.8"/>
     </g>
     <g id="line2d_100">
      <g>
       <use xlink:href="#mc52e73f746" x="81" y="167.94" style="stroke: #000000; stroke-width: 0.6"/>
      </g>
     </g>
    </g>
    <g id="ytick_28">
     <g id="line2d_101">
      <path d="M 81 161.01 
L 583.2 161.01 
" clip-path="url(#p20689dbf0e)" style="fill: none; stroke-dasharray: 2.96,1.28; stroke-dashoffset: 0; stroke: #b0b0b0; stroke-opacity: 0.8; stroke-width: 0.8"/>
     </g>
     <g id="line2d_102">
      <g>
       <use xlink:href="#mc52e73f746" x="81" y="161.01" style="stroke: #000000; stroke-width: 0.6"/>
      </g>
     </g>
    </g>
    <g id="ytick_29">
     <g id="line2d_103">
      <path d="M 81 154.08 
L 583.2 154.08 
" clip-path="url(#p20689dbf0e)" style="fill: none; stroke-dasharray: 2.96,1.28; stroke-dashoffset: 0; stroke: #b0b0b0; stroke-opacity: 0.8; stroke-width: 0.8"/>
     </g>
     <g id="line2d_104">
      <g>
       <use xlink:href="#mc52e73f746" x="81" y="154.08" style="stroke: #000000; stroke-width: 0.6"/>
      </g>
     </g>
    </g>
    <g id="ytick_30">
     <g id="line2d_105">
      <path d="M 81 140.22 
L 583.2 140.22 
" clip-path="url(#p20689dbf0e)" style="fill: none; stroke-dasharray: 2.96,1.28; stroke-dashoffset: 0; stroke: #b0b0b0; stroke-opacity: 0.8; stroke-width: 0.8"/>
     </g>
     <g id="line2d_106">
      <g>
       <use xlink:href="#mc52e73f746" x="81" y="140.22" style="stroke: #000000; stroke-width: 0.6"/>
      </g>
     </g>
    </g>
    <g id="ytick_31">
     <g id="line2d_107">
      <path d="M 81 133.29 
L 583.2 133.29 
" clip-path="url(#p20689dbf0e)" style="fill: none; stroke-dasharray: 2.96,1.28; stroke-dashoffset: 0; stroke: #b0b0b0; stroke-opacity: 0.8; stroke-width: 0.8"/>
     </g>
     <g id="line2d_108">
      <g>
       <use xlink:href="#mc52e73f746" x="81" y="133.29" style="stroke: #000000; stroke-width: 0.6"/>
      </g>
     </g>
    </g>
    <g id="ytick_32">
     <g id="line2d_109">
      <path d="M 81 126.36 
L 583.2 126.36 
" clip-path="url(#p20689dbf0e)" style="fill: none; stroke-dasharray: 2.96,1.28; stroke-dashoffset: 0; stroke: #b0b0b0; stroke-opacity: 0.8; stroke-width: 0.8"/>
     </g>
     <g id="line2d_110">
      <g>
       <use xlink:href="#mc52e73f746" x="81" y="126.36" style="stroke: #000000; stroke-width: 0.6"/>
      </g>
     </g>
    </g>
    <g id="ytick_33">
     <g id="line2d_111">
      <path d="M 81 119.43 
L 583.2 119.43 
" clip-path="url(#p20689dbf0e)" style="fill: none; stroke-dasharray: 2.96,1.28; stroke-dashoffset: 0; stroke: #b0b0b0; stroke-opacity: 0.8; stroke-width: 0.8"/>
     </g>
     <g id="line2d_112">
      <g>
       <use xlink:href="#mc52e73f746" x="81" y="119.43" style="stroke: #000000; stroke-width: 0.6"/>
      </g>
     </g>
    </g>
    <g id="ytick_34">
     <g id="line2d_113">
      <path d="M 81 105.57 
L 583.2 105.57 
" clip-path="url(#p20689dbf0e)" style="fill: none; stroke-dasharray: 2.96,1.28; stroke-dashoffset: 0; stroke: #b0b0b0; stroke-opacity: 0.8; stroke-width: 0.8"/>
     </g>
     <g id="line2d_114">
      <g>
       <use xlink:href="#mc52e73f746" x="81" y="105.57" style="stroke: #000000; stroke-width: 0.6"/>
      </g>
     </g>
    </g>
    <g id="ytick_35">
     <g id="line2d_115">
      <path d="M 81 98.64 
L 583.2 98.64 
" clip-path="url(#p20689dbf0e)" style="fill: none; stroke-dasharray: 2.96,1.28; stroke-dashoffset: 0; stroke: #b0b0b0; stroke-opacity: 0.8; stroke-width: 0.8"/>
     </g>
     <g id="line2d_116">
      <g>
       <use xlink:href="#mc52e73f746" x="81" y="98.64" style="stroke: #000000; stroke-width: 0.6"/>
      </g>
     </g>
    </g>
    <g id="ytick_36">
     <g id="line2d_117">
      <path d="M 81 91.71 
L 583.2 91.71 
" clip-path="url(#p20689dbf0e)" style="fill: none; stroke-dasharray: 2.96,1.28; stroke-dashoffset: 0; stroke: #b0b0b0; stroke-opacity: 0.8; stroke-width: 0.8"/>
     </g>
     <g id="line2d_118">
      <g>
       <use xlink:href="#mc52e73f746" x="81" y="91.71" style="stroke: #000000; stroke-width: 0.6"/>
      </g>
     </g>
    </g>
    <g id="ytick_37">
     <g id="line2d_119">
      <path d="M 81 84.78 
L 583.2 84.78 
" clip-path="url(#p20689dbf0e)" style="fill: none; stroke-dasharray: 2.96,1.28; stroke-dashoffset: 0; stroke: #b0b0b0; stroke-opacity: 0.8; stroke-width: 0.8"/>
     </g>
     <g id="line2d_120">
      <g>
       <use xlink:href="#mc52e73f746" x="81" y="84.78" style="stroke: #000000; stroke-width: 0.6"/>
      </g>
     </g>
    </g>
    <g id="ytick_38">
     <g id="line2d_121">
      <path d="M 81 70.92 
L 583.2 70.92 
" clip-path="url(#p20689dbf0e)" style="fill: none; stroke-dasharray: 2.96,1.28; stroke-dashoffset: 0; stroke: #b0b0b0; stroke-opacity: 0.8; stroke-width: 0.8"/>
     </g>
     <g id="line2d_122">
      <g>
       <use xlink:href="#mc52e73f746" x="81" y="70.92" style="stroke: #000000; stroke-width: 0.6"/>
      </g>
     </g>
    </g>
    <g id="ytick_39">
     <g id="line2d_123">
      <path d="M 81 63.99 
L 583.2 63.99 
" clip-path="url(#p20689dbf0e)" style="fill: none; stroke-dasharray: 2.96,1.28; stroke-dashoffset: 0; stroke: #b0b0b0; stroke-opacity: 0.8; stroke-width: 0.8"/>
     </g>
     <g id="line2d_124">
      <g>
       <use xlink:href="#mc52e73f746" x="81" y="63.99" style="stroke: #000000; stroke-width: 0.6"/>
      </g>
     </g>
    </g>
    <g id="ytick_40">
     <g id="line2d_125">
      <path d="M 81 57.06 
L 583.2 57.06 
" clip-path="url(#p20689dbf0e)" style="fill: none; stroke-dasharray: 2.96,1.28; stroke-dashoffset: 0; stroke: #b0b0b0; stroke-opacity: 0.8; stroke-width: 0.8"/>
     </g>
     <g id="line2d_126">
      <g>
       <use xlink:href="#mc52e73f746" x="81" y="57.06" style="stroke: #000000; stroke-width: 0.6"/>
      </g>
     </g>
    </g>
    <g id="ytick_41">
     <g id="line2d_127">
      <path d="M 81 50.13 
L 583.2 50.13 
" clip-path="url(#p20689dbf0e)" style="fill: none; stroke-dasharray: 2.96,1.28; stroke-dashoffset: 0; stroke: #b0b0b0; stroke-opacity: 0.8; stroke-width: 0.8"/>
     </g>
     <g id="line2d_128">
      <g>
       <use xlink:href="#mc52e73f746" x="81" y="50.13" style="stroke: #000000; stroke-width: 0.6"/>
      </g>
     </g>
    </g>
    <g id="text_23">
     <!-- Напряжение на обкладках конденсатора [В] -->
     <g transform="translate(52.017187 300.370312)rotate(-90)scale(0.1 -0.1)">
      <defs>
       <path id="DejaVuSans-41d" d="M 628 4666 
L 1259 4666 
L 1259 2753 
L 3553 2753 
L 3553 4666 
L 4184 4666 
L 4184 0 
L 3553 0 
L 3553 2222 
L 1259 2222 
L 1259 0 
L 628 0 
L 628 4666 
z
" transform="scale(0.015625)"/>
       <path id="DejaVuSans-436" d="M 2597 3500 
L 3169 3500 
L 3169 1856 
L 4697 3500 
L 5366 3500 
L 4109 2153 
L 5547 0 
L 4931 0 
L 3753 1769 
L 3169 1141 
L 3169 0 
L 2597 0 
L 2597 1141 
L 2013 1769 
L 834 0 
L 219 0 
L 1656 2153 
L 400 3500 
L 1069 3500 
L 2597 1856 
L 2597 3500 
z
" transform="scale(0.015625)"/>
       <path id="DejaVuSans-43e" d="M 1959 3097 
Q 1497 3097 1228 2736 
Q 959 2375 959 1747 
Q 959 1119 1226 758 
Q 1494 397 1959 397 
Q 2419 397 2687 759 
Q 2956 1122 2956 1747 
Q 2956 2369 2687 2733 
Q 2419 3097 1959 3097 
z
M 1959 3584 
Q 2709 3584 3137 3096 
Q 3566 2609 3566 1747 
Q 3566 888 3137 398 
Q 2709 -91 1959 -91 
Q 1206 -91 779 398 
Q 353 888 353 1747 
Q 353 2609 779 3096 
Q 1206 3584 1959 3584 
z
" transform="scale(0.015625)"/>
       <path id="DejaVuSans-431" d="M 1991 3584 
Q 2741 3584 3169 3096 
Q 3597 2609 3597 1747 
Q 3597 888 3169 398 
Q 2741 -91 1991 -91 
Q 1238 -91 822 384 
Q 406 859 384 1747 
L 366 2463 
Q 350 2834 350 2963 
Q 350 3463 531 3831 
Q 816 4409 1308 4659 
Q 1800 4909 2625 4916 
Q 3006 4919 3175 4972 
L 3334 4516 
Q 3181 4453 3041 4450 
L 2259 4397 
Q 1866 4369 1628 4231 
Q 1006 3866 947 3388 
L 925 3213 
Q 1331 3584 1991 3584 
z
M 1991 3097 
Q 1528 3097 1259 2736 
Q 991 2375 991 1747 
Q 991 1119 1258 758 
Q 1525 397 1991 397 
Q 2450 397 2719 759 
Q 2988 1122 2988 1747 
Q 2988 2369 2719 2733 
Q 2450 3097 1991 3097 
z
" transform="scale(0.015625)"/>
       <path id="DejaVuSans-434" d="M 1384 459 
L 3053 459 
L 3053 3041 
L 1844 3041 
L 1844 2603 
Q 1844 1316 1475 628 
L 1384 459 
z
M 550 459 
Q 834 584 959 850 
Q 1266 1509 1266 2838 
L 1266 3500 
L 3631 3500 
L 3631 459 
L 4091 459 
L 4091 -884 
L 3631 -884 
L 3631 0 
L 794 0 
L 794 -884 
L 334 -884 
L 334 459 
L 550 459 
z
" transform="scale(0.015625)"/>
       <path id="DejaVuSans-445" d="M 3513 3500 
L 2247 1797 
L 3578 0 
L 2900 0 
L 1881 1375 
L 863 0 
L 184 0 
L 1544 1831 
L 300 3500 
L 978 3500 
L 1906 2253 
L 2834 3500 
L 3513 3500 
z
" transform="scale(0.015625)"/>
      </defs>
      <use xlink:href="#DejaVuSans-41d"/>
      <use xlink:href="#DejaVuSans-430" x="75.195312"/>
      <use xlink:href="#DejaVuSans-43f" x="136.474609"/>
      <use xlink:href="#DejaVuSans-440" x="201.855469"/>
      <use xlink:href="#DejaVuSans-44f" x="265.332031"/>
      <use xlink:href="#DejaVuSans-436" x="325.488281"/>
      <use xlink:href="#DejaVuSans-435" x="415.576172"/>
      <use xlink:href="#DejaVuSans-43d" x="477.099609"/>
      <use xlink:href="#DejaVuSans-438" x="542.480469"/>
      <use xlink:href="#DejaVuSans-435" x="607.470703"/>
      <use xlink:href="#DejaVuSans-20" x="668.994141"/>
      <use xlink:href="#DejaVuSans-43d" x="700.78125"/>
      <use xlink:href="#DejaVuSans-430" x="766.162109"/>
      <use xlink:href="#DejaVuSans-20" x="827.441406"/>
      <use xlink:href="#DejaVuSans-43e" x="859.228516"/>
      <use xlink:href="#DejaVuSans-431" x="920.410156"/>
      <use xlink:href="#DejaVuSans-43a" x="982.080078"/>
      <use xlink:href="#DejaVuSans-43b" x="1042.480469"/>
      <use xlink:href="#DejaVuSans-430" x="1106.396484"/>
      <use xlink:href="#DejaVuSans-434" x="1167.675781"/>
      <use xlink:href="#DejaVuSans-43a" x="1236.816406"/>
      <use xlink:href="#DejaVuSans-430" x="1297.216797"/>
      <use xlink:href="#DejaVuSans-445" x="1358.496094"/>
      <use xlink:href="#DejaVuSans-20" x="1417.675781"/>
      <use xlink:href="#DejaVuSans-43a" x="1449.462891"/>
      <use xlink:href="#DejaVuSans-43e" x="1509.863281"/>
      <use xlink:href="#DejaVuSans-43d" x="1571.044922"/>
      <use xlink:href="#DejaVuSans-434" x="1636.425781"/>
      <use xlink:href="#DejaVuSans-435" x="1705.566406"/>
      <use xlink:href="#DejaVuSans-43d" x="1767.089844"/>
      <use xlink:href="#DejaVuSans-441" x="1832.470703"/>
      <use xlink:href="#DejaVuSans-430" x="1887.451172"/>
      <use xlink:href="#DejaVuSans-442" x="1948.730469"/>
      <use xlink:href="#DejaVuSans-43e" x="2006.982422"/>
      <use xlink:href="#DejaVuSans-440" x="2068.164062"/>
      <use xlink:href="#DejaVuSans-430" x="2131.640625"/>
      <use xlink:href="#DejaVuSans-20" x="2192.919922"/>
      <use xlink:href="#DejaVuSans-5b" x="2224.707031"/>
      <use xlink:href="#DejaVuSans-412" x="2263.720703"/>
      <use xlink:href="#DejaVuSans-5d" x="2332.324219"/>
     </g>
    </g>
   </g>
   <g id="line2d_129">
    <path d="M 81 320.4 
L 82.370895 320.4 
L 83.284825 315.040078 
L 83.74179 313.253437 
L 84.198756 310.573477 
L 85.112686 307.000195 
L 86.026616 301.640273 
L 86.483581 299.853633 
L 86.940546 297.173672 
L 88.311441 291.81375 
L 88.768406 288.240469 
L 89.225371 286.453828 
L 89.682336 285.560508 
L 90.139301 281.987227 
L 90.596267 280.200586 
L 91.053232 277.520625 
L 94.251987 265.014141 
L 94.708952 264.12082 
L 95.165917 262.33418 
L 95.622882 259.654219 
L 97.450743 252.507656 
L 97.907708 251.614336 
L 98.364673 249.827695 
L 98.821638 248.934375 
L 99.278603 247.147734 
L 99.735568 243.574453 
L 100.192533 242.681133 
L 100.649498 240.894492 
L 101.106463 240.001172 
L 102.477358 234.64125 
L 102.934324 234.64125 
L 103.391289 231.961289 
L 103.848254 231.067969 
L 104.762184 227.494687 
L 105.676114 225.708047 
L 106.133079 223.028086 
L 106.590044 223.028086 
L 107.047009 220.348125 
L 107.960939 218.561484 
L 108.417904 216.774844 
L 109.331835 214.988203 
L 109.7888 213.201562 
L 110.245765 212.308242 
L 110.70273 210.521602 
L 111.159695 209.628281 
L 111.61666 207.841641 
L 112.987555 205.16168 
L 113.44452 203.375039 
L 113.901485 202.481719 
L 114.35845 200.695078 
L 114.815415 200.695078 
L 115.272381 199.801758 
L 116.186311 196.228477 
L 118.471136 191.761875 
L 118.928101 189.975234 
L 122.126857 183.721992 
L 122.583822 183.721992 
L 123.040787 181.935352 
L 125.782577 176.57543 
L 126.239542 176.57543 
L 126.696507 173.895469 
L 127.610438 173.895469 
L 128.067403 173.002148 
L 128.524368 171.215508 
L 128.981333 171.215508 
L 129.438298 169.428867 
L 129.895263 169.428867 
L 132.180088 164.962266 
L 132.637053 164.962266 
L 133.094018 163.175625 
L 134.007949 163.175625 
L 134.464914 161.388984 
L 134.921879 161.388984 
L 137.206704 156.922383 
L 137.663669 156.922383 
L 138.577599 155.135742 
L 139.034564 155.135742 
L 139.948494 153.349102 
L 140.40546 153.349102 
L 141.31939 151.562461 
L 141.776355 151.562461 
L 143.14725 148.8825 
L 144.06118 148.8825 
L 144.518145 147.98918 
L 144.97511 147.98918 
L 145.432075 147.095859 
L 145.88904 147.095859 
L 146.346006 146.202539 
L 146.802971 146.202539 
L 148.630831 142.629258 
L 149.087796 143.522578 
L 149.544761 142.629258 
L 150.001726 142.629258 
L 150.458691 140.842617 
L 151.372621 140.842617 
L 151.829586 139.949297 
L 152.286551 139.949297 
L 152.743517 139.055977 
L 153.200482 139.055977 
L 153.657447 137.269336 
L 154.571377 137.269336 
L 155.028342 136.376016 
L 155.485307 136.376016 
L 155.942272 135.482695 
L 157.313167 135.482695 
L 157.770132 133.696055 
L 158.227097 133.696055 
L 158.684062 132.802734 
L 160.054958 132.802734 
L 160.511923 131.909414 
L 160.968888 131.909414 
L 161.882818 130.122773 
L 162.796748 130.122773 
L 163.253713 129.229453 
L 164.167643 129.229453 
L 165.081574 127.442812 
L 165.995504 127.442812 
L 166.909434 125.656172 
L 167.366399 126.549492 
L 168.280329 126.549492 
L 168.737294 124.762852 
L 169.194259 125.656172 
L 169.651224 124.762852 
L 170.108189 124.762852 
L 170.565154 123.869531 
L 171.93605 123.869531 
L 172.393015 122.976211 
L 173.306945 122.976211 
L 174.67784 120.29625 
L 175.134805 121.18957 
L 175.59177 120.29625 
L 178.333561 120.29625 
L 178.790526 119.40293 
L 180.161421 119.40293 
L 180.618386 118.509609 
L 181.075351 118.509609 
L 181.532316 117.616289 
L 182.903211 117.616289 
L 183.360176 116.722969 
L 183.817142 117.616289 
L 184.274107 116.722969 
L 184.731072 116.722969 
L 185.645002 114.936328 
L 186.101967 115.829648 
L 187.015897 115.829648 
L 187.472862 114.936328 
L 187.929827 114.936328 
L 188.386792 114.043008 
L 188.843757 114.936328 
L 189.300722 114.043008 
L 192.042513 114.043008 
L 192.499478 112.256367 
L 192.956443 113.149687 
L 193.413408 112.256367 
L 193.870373 113.149687 
L 194.327338 112.256367 
L 195.698233 112.256367 
L 196.155199 111.363047 
L 196.612164 111.363047 
L 197.069129 110.469727 
L 197.526094 110.469727 
L 197.983059 111.363047 
L 198.440024 110.469727 
L 199.810919 110.469727 
L 200.267884 109.576406 
L 200.724849 109.576406 
L 201.181814 110.469727 
L 201.638779 109.576406 
L 203.009675 109.576406 
L 203.46664 108.683086 
L 204.837535 108.683086 
L 205.2945 107.789766 
L 205.751465 107.789766 
L 206.20843 108.683086 
L 206.665395 107.789766 
L 207.12236 108.683086 
L 208.03629 106.896445 
L 208.493256 107.789766 
L 209.407186 107.789766 
L 209.864151 106.003125 
L 210.321116 106.896445 
L 210.778081 106.896445 
L 211.235046 106.003125 
L 214.890767 106.003125 
L 215.347732 105.109805 
L 215.804697 106.003125 
L 216.261662 106.003125 
L 216.718627 105.109805 
L 218.089522 105.109805 
L 218.546487 104.216484 
L 219.460417 104.216484 
L 219.917382 105.109805 
L 220.374347 105.109805 
L 220.831312 104.216484 
L 221.288278 105.109805 
L 221.745243 104.216484 
L 223.573103 104.216484 
L 224.030068 103.323164 
L 224.943998 103.323164 
L 225.400963 104.216484 
L 225.857928 103.323164 
L 229.513649 103.323164 
L 229.970614 102.429844 
L 230.427579 102.429844 
L 230.884544 103.323164 
L 231.341509 102.429844 
L 232.712404 102.429844 
L 233.169369 149.77582 
L 233.626335 102.429844 
L 234.99723 102.429844 
L 235.454195 100.643203 
L 235.91116 102.429844 
L 236.368125 102.429844 
L 236.82509 101.536523 
L 238.195985 101.536523 
L 238.65295 100.643203 
L 239.109915 100.643203 
L 239.566881 101.536523 
L 240.023846 100.643203 
L 240.480811 101.536523 
L 240.937776 101.536523 
L 241.394741 100.643203 
L 247.335287 100.643203 
L 247.792252 99.749883 
L 248.249217 100.643203 
L 248.706182 99.749883 
L 249.163147 100.643203 
L 249.620112 99.749883 
L 251.904938 99.749883 
L 252.361903 98.856562 
L 252.818868 99.749883 
L 253.732798 99.749883 
L 254.189763 98.856562 
L 254.646728 99.749883 
L 256.017623 99.749883 
L 256.474588 98.856562 
L 257.845483 98.856562 
L 258.302449 99.749883 
L 258.759414 98.856562 
L 267.44175 98.856562 
L 267.898715 97.963242 
L 268.35568 98.856562 
L 269.26961 98.856562 
L 269.726575 97.963242 
L 270.18354 98.856562 
L 270.640506 97.963242 
L 271.097471 97.963242 
L 271.554436 98.856562 
L 272.011401 97.963242 
L 272.468366 98.856562 
L 272.925331 97.963242 
L 276.124086 97.963242 
L 276.581051 97.069922 
L 277.038017 97.963242 
L 277.494982 97.963242 
L 277.951947 97.069922 
L 278.408912 97.069922 
L 278.865877 97.963242 
L 282.978563 97.963242 
L 283.435528 97.069922 
L 284.806423 97.069922 
L 285.263388 97.963242 
L 285.720353 97.069922 
L 286.177318 97.963242 
L 286.634283 97.069922 
L 290.290004 97.069922 
L 290.746969 97.963242 
L 291.203934 97.069922 
L 292.117864 97.069922 
L 292.574829 97.963242 
L 293.031794 96.176602 
L 293.488759 97.069922 
L 294.402689 97.069922 
L 294.859654 97.963242 
L 295.316619 97.069922 
L 297.14448 97.069922 
L 297.601445 96.176602 
L 298.515375 96.176602 
L 298.97234 97.069922 
L 299.429305 97.069922 
L 299.88627 97.963242 
L 300.343235 97.069922 
L 301.714131 97.069922 
L 302.171096 96.176602 
L 303.541991 96.176602 
L 303.998956 97.069922 
L 304.455921 96.176602 
L 304.912886 97.069922 
L 305.369851 96.176602 
L 307.197711 96.176602 
L 307.654676 97.069922 
L 309.025572 97.069922 
L 309.482537 96.176602 
L 309.939502 96.176602 
L 310.396467 97.069922 
L 310.853432 96.176602 
L 311.310397 97.069922 
L 311.767362 96.176602 
L 312.681292 96.176602 
L 313.138257 97.069922 
L 313.595222 96.176602 
L 314.966118 96.176602 
L 315.423083 97.069922 
L 315.880048 96.176602 
L 317.707908 96.176602 
L 318.164873 97.963242 
L 318.621838 96.176602 
L 319.992733 96.176602 
L 320.449699 95.283281 
L 320.906664 96.176602 
L 321.363629 95.283281 
L 321.820594 96.176602 
L 323.648454 96.176602 
L 324.105419 95.283281 
L 324.562384 96.176602 
L 325.019349 96.176602 
L 325.476314 95.283281 
L 325.933279 96.176602 
L 328.218105 96.176602 
L 328.67507 95.283281 
L 329.132035 96.176602 
L 329.589 96.176602 
L 330.045965 95.283281 
L 330.50293 95.283281 
L 330.959895 96.176602 
L 331.41686 95.283281 
L 331.873825 96.176602 
L 332.33079 95.283281 
L 332.787756 95.283281 
L 333.244721 96.176602 
L 334.615616 96.176602 
L 335.072581 95.283281 
L 335.529546 96.176602 
L 335.986511 95.283281 
L 336.443476 95.283281 
L 336.900441 96.176602 
L 337.357406 95.283281 
L 337.814371 95.283281 
L 338.271336 96.176602 
L 338.728301 95.283281 
L 339.185267 96.176602 
L 341.013127 96.176602 
L 341.470092 95.283281 
L 341.927057 96.176602 
L 342.840987 96.176602 
L 343.297952 95.283281 
L 344.211882 95.283281 
L 344.668847 96.176602 
L 345.582778 96.176602 
L 346.039743 95.283281 
L 346.496708 96.176602 
L 346.953673 95.283281 
L 347.410638 96.176602 
L 348.324568 96.176602 
L 348.781533 95.283281 
L 349.695463 95.283281 
L 350.152428 96.176602 
L 350.609393 95.283281 
L 351.066358 95.283281 
L 351.523324 96.176602 
L 351.980289 96.176602 
L 352.437254 95.283281 
L 352.894219 96.176602 
L 353.351184 96.176602 
L 353.808149 95.283281 
L 355.179044 95.283281 
L 355.636009 96.176602 
L 356.092974 95.283281 
L 356.549939 96.176602 
L 357.006904 95.283281 
L 359.748695 95.283281 
L 360.20566 96.176602 
L 360.662625 95.283281 
L 361.11959 95.283281 
L 361.576555 96.176602 
L 362.03352 95.283281 
L 362.490485 96.176602 
L 362.94745 96.176602 
L 363.404415 95.283281 
L 366.603171 95.283281 
L 367.060136 96.176602 
L 367.517101 95.283281 
L 368.431031 95.283281 
L 368.887996 96.176602 
L 369.344961 95.283281 
L 372.543717 95.283281 
L 373.000682 96.176602 
L 373.457647 95.283281 
L 375.285507 95.283281 
L 375.742472 96.176602 
L 376.199437 95.283281 
L 378.941228 95.283281 
L 379.398193 96.176602 
L 379.855158 95.283281 
L 381.683018 95.283281 
L 382.139983 93.496641 
L 382.596949 96.176602 
L 383.053914 97.963242 
L 383.510879 101.536523 
L 384.424809 105.109805 
L 384.881774 107.789766 
L 385.338739 109.576406 
L 385.795704 112.256367 
L 386.709634 115.829648 
L 387.166599 118.509609 
L 387.623564 120.29625 
L 388.080529 122.976211 
L 389.451425 128.336133 
L 389.90839 131.016094 
L 390.365355 132.802734 
L 390.82232 135.482695 
L 391.279285 137.269336 
L 391.73625 138.162656 
L 392.193215 140.842617 
L 392.65018 141.735937 
L 393.107145 144.415898 
L 394.021075 147.98918 
L 394.47804 148.8825 
L 394.935006 150.669141 
L 395.391971 153.349102 
L 395.848936 155.135742 
L 396.305901 156.029062 
L 398.133761 163.175625 
L 398.590726 164.068945 
L 399.047691 165.855586 
L 399.504656 168.535547 
L 399.961621 170.322187 
L 400.875551 172.108828 
L 401.332517 174.788789 
L 401.789482 175.682109 
L 402.246447 177.46875 
L 402.703412 178.36207 
L 403.160377 180.148711 
L 403.617342 181.042031 
L 404.074307 182.828672 
L 404.531272 183.721992 
L 405.445202 187.295273 
L 405.902167 188.188594 
L 406.359132 189.975234 
L 406.816097 190.868555 
L 407.273063 192.655195 
L 408.186993 194.441836 
L 409.557888 199.801758 
L 410.014853 199.801758 
L 410.928783 203.375039 
L 412.299678 206.055 
L 412.756643 207.841641 
L 413.670574 209.628281 
L 414.127539 209.628281 
L 415.041469 213.201562 
L 416.869329 216.774844 
L 417.326294 218.561484 
L 418.240224 220.348125 
L 418.697189 222.134766 
L 420.068085 224.814727 
L 420.52505 224.814727 
L 420.982015 226.601367 
L 422.809875 230.174648 
L 423.26684 231.961289 
L 423.723805 231.961289 
L 424.18077 233.74793 
L 424.637735 234.64125 
L 425.0947 234.64125 
L 426.465596 237.321211 
L 426.922561 237.321211 
L 427.379526 238.214531 
L 427.836491 240.001172 
L 428.293456 240.001172 
L 429.207386 241.787812 
L 429.664351 243.574453 
L 430.121316 243.574453 
L 432.406142 248.041055 
L 432.863107 248.041055 
L 433.320072 248.934375 
L 433.777037 248.934375 
L 434.234002 251.614336 
L 434.690967 252.507656 
L 435.147932 251.614336 
L 436.975792 255.187617 
L 437.432757 255.187617 
L 438.346688 256.974258 
L 438.803653 256.974258 
L 440.174548 259.654219 
L 440.631513 259.654219 
L 442.002408 262.33418 
L 442.459373 264.12082 
L 444.287233 264.12082 
L 445.201164 265.907461 
L 445.658129 265.907461 
L 446.572059 267.694102 
L 447.029024 267.694102 
L 447.485989 268.587422 
L 447.942954 268.587422 
L 448.399919 269.480742 
L 448.856884 269.480742 
L 449.313849 270.374062 
L 449.770814 270.374062 
L 450.227779 271.267383 
L 450.684744 271.267383 
L 451.14171 272.160703 
L 451.598675 272.160703 
L 452.512605 273.947344 
L 452.96957 273.947344 
L 453.8835 275.733984 
L 454.79743 275.733984 
L 455.71136 277.520625 
L 457.082256 277.520625 
L 457.539221 278.413945 
L 457.996186 278.413945 
L 458.453151 279.307266 
L 458.910116 279.307266 
L 459.367081 280.200586 
L 459.824046 280.200586 
L 460.281011 281.093906 
L 460.737976 281.093906 
L 461.194941 281.987227 
L 461.651906 281.987227 
L 462.565836 283.773867 
L 463.936732 283.773867 
L 464.393697 284.667187 
L 464.850662 284.667187 
L 465.307627 285.560508 
L 466.221557 285.560508 
L 466.678522 286.453828 
L 467.135487 286.453828 
L 467.592452 287.347148 
L 468.049417 287.347148 
L 468.506382 288.240469 
L 469.420313 288.240469 
L 469.877278 289.133789 
L 470.791208 289.133789 
L 471.248173 290.027109 
L 472.162103 290.027109 
L 472.619068 290.92043 
L 473.076033 290.027109 
L 473.532998 290.92043 
L 473.989963 290.92043 
L 474.446928 292.70707 
L 477.188719 292.70707 
L 477.645684 293.600391 
L 479.016579 293.600391 
L 479.473544 294.493711 
L 479.930509 294.493711 
L 480.387474 295.387031 
L 481.301404 295.387031 
L 481.758369 296.280352 
L 482.215335 295.387031 
L 482.6723 296.280352 
L 483.129265 296.280352 
L 483.58623 297.173672 
L 484.50016 297.173672 
L 484.957125 298.066992 
L 485.41409 297.173672 
L 485.871055 297.173672 
L 486.784985 298.960312 
L 487.24195 298.960312 
L 487.698915 298.066992 
L 488.155881 298.960312 
L 489.069811 298.960312 
L 489.526776 299.853633 
L 490.440706 299.853633 
L 490.897671 300.746953 
L 493.182496 300.746953 
L 493.639461 301.640273 
L 494.096426 300.746953 
L 494.553392 301.640273 
L 495.010357 301.640273 
L 495.467322 302.533594 
L 496.381252 302.533594 
L 496.838217 303.426914 
L 497.295182 303.426914 
L 497.752147 302.533594 
L 498.209112 303.426914 
L 498.666077 302.533594 
L 499.123042 303.426914 
L 499.580007 303.426914 
L 500.036972 304.320234 
L 502.321798 304.320234 
L 502.778763 305.213555 
L 504.149658 305.213555 
L 504.606623 306.106875 
L 505.977518 306.106875 
L 506.434483 307.000195 
L 506.891449 307.000195 
L 507.348414 306.106875 
L 507.805379 306.106875 
L 508.262344 307.000195 
L 510.547169 307.000195 
L 511.004134 307.893516 
L 511.461099 307.000195 
L 511.918064 307.893516 
L 513.28896 307.893516 
L 513.745925 308.786836 
L 514.20289 307.893516 
L 514.659855 308.786836 
L 515.11682 308.786836 
L 515.573785 307.893516 
L 516.03075 308.786836 
L 517.401645 308.786836 
L 517.85861 309.680156 
L 521.057366 309.680156 
L 521.514331 310.573477 
L 521.971296 310.573477 
L 522.428261 309.680156 
L 522.885226 309.680156 
L 523.342191 310.573477 
L 523.799156 309.680156 
L 524.256121 310.573477 
L 524.713086 309.680156 
L 525.170051 311.466797 
L 526.540947 311.466797 
L 526.997912 310.573477 
L 527.454877 311.466797 
L 527.911842 311.466797 
L 528.368807 310.573477 
L 528.825772 311.466797 
L 529.282737 311.466797 
L 529.739702 312.360117 
L 530.196667 312.360117 
L 530.653632 311.466797 
L 531.110597 311.466797 
L 531.567563 312.360117 
L 533.395423 312.360117 
L 533.852388 314.146758 
L 534.766318 312.360117 
L 535.223283 312.360117 
L 535.680248 313.253437 
L 536.594178 313.253437 
L 537.051143 312.360117 
L 537.508108 313.253437 
L 537.965074 312.360117 
L 538.422039 313.253437 
L 539.792934 313.253437 
L 540.249899 314.146758 
L 540.706864 313.253437 
L 541.163829 314.146758 
L 541.620794 314.146758 
L 542.077759 313.253437 
L 542.534724 314.146758 
L 542.991689 313.253437 
L 543.448654 314.146758 
L 546.64741 314.146758 
L 547.104375 315.040078 
L 547.56134 314.146758 
L 548.018305 315.040078 
L 548.47527 314.146758 
L 548.932235 315.040078 
L 549.3892 315.040078 
L 549.846165 314.146758 
L 550.303131 315.040078 
L 553.958851 315.040078 
L 554.415816 315.933398 
L 554.872781 315.933398 
L 555.329746 315.040078 
L 555.786711 315.933398 
L 556.243676 315.040078 
L 557.157607 315.040078 
L 557.614572 315.933398 
L 558.071537 315.933398 
L 558.528502 315.040078 
L 558.985467 315.040078 
L 559.442432 315.933398 
L 560.813327 315.933398 
L 561.270292 315.040078 
L 562.184222 315.040078 
L 562.641188 315.933398 
L 564.926013 315.933398 
L 565.382978 316.826719 
L 565.839943 315.933398 
L 566.296908 316.826719 
L 566.753873 315.933398 
L 567.210838 316.826719 
L 577.721035 316.826719 
L 578.178 317.720039 
L 578.178 317.720039 
" clip-path="url(#p20689dbf0e)" style="fill: none; stroke: #ff0000; stroke-linecap: square"/>
    <defs>
     <path id="mf323d1bb5b" d="M 0 4.242641 
L 4.242641 0 
L 0 -4.242641 
L -4.242641 0 
z
" style="stroke: #ffffff; stroke-linejoin: miter"/>
    </defs>
    <g clip-path="url(#p20689dbf0e)">
     <use xlink:href="#mf323d1bb5b" x="81" y="320.4" style="fill: #ff0000; stroke: #ffffff; stroke-linejoin: miter"/>
     <use xlink:href="#mf323d1bb5b" x="103.391289" y="231.961289" style="fill: #ff0000; stroke: #ffffff; stroke-linejoin: miter"/>
     <use xlink:href="#mf323d1bb5b" x="125.782577" y="176.57543" style="fill: #ff0000; stroke: #ffffff; stroke-linejoin: miter"/>
     <use xlink:href="#mf323d1bb5b" x="148.173866" y="143.522578" style="fill: #ff0000; stroke: #ffffff; stroke-linejoin: miter"/>
     <use xlink:href="#mf323d1bb5b" x="170.565154" y="123.869531" style="fill: #ff0000; stroke: #ffffff; stroke-linejoin: miter"/>
     <use xlink:href="#mf323d1bb5b" x="192.956443" y="113.149687" style="fill: #ff0000; stroke: #ffffff; stroke-linejoin: miter"/>
     <use xlink:href="#mf323d1bb5b" x="215.347732" y="105.109805" style="fill: #ff0000; stroke: #ffffff; stroke-linejoin: miter"/>
     <use xlink:href="#mf323d1bb5b" x="237.73902" y="101.536523" style="fill: #ff0000; stroke: #ffffff; stroke-linejoin: miter"/>
     <use xlink:href="#mf323d1bb5b" x="260.130309" y="98.856562" style="fill: #ff0000; stroke: #ffffff; stroke-linejoin: miter"/>
     <use xlink:href="#mf323d1bb5b" x="282.521597" y="97.963242" style="fill: #ff0000; stroke: #ffffff; stroke-linejoin: miter"/>
     <use xlink:href="#mf323d1bb5b" x="304.912886" y="97.069922" style="fill: #ff0000; stroke: #ffffff; stroke-linejoin: miter"/>
     <use xlink:href="#mf323d1bb5b" x="327.304175" y="96.176602" style="fill: #ff0000; stroke: #ffffff; stroke-linejoin: miter"/>
     <use xlink:href="#mf323d1bb5b" x="349.695463" y="95.283281" style="fill: #ff0000; stroke: #ffffff; stroke-linejoin: miter"/>
     <use xlink:href="#mf323d1bb5b" x="372.086752" y="95.283281" style="fill: #ff0000; stroke: #ffffff; stroke-linejoin: miter"/>
     <use xlink:href="#mf323d1bb5b" x="394.47804" y="148.8825" style="fill: #ff0000; stroke: #ffffff; stroke-linejoin: miter"/>
     <use xlink:href="#mf323d1bb5b" x="416.869329" y="216.774844" style="fill: #ff0000; stroke: #ffffff; stroke-linejoin: miter"/>
     <use xlink:href="#mf323d1bb5b" x="439.260618" y="257.867578" style="fill: #ff0000; stroke: #ffffff; stroke-linejoin: miter"/>
     <use xlink:href="#mf323d1bb5b" x="461.651906" y="281.987227" style="fill: #ff0000; stroke: #ffffff; stroke-linejoin: miter"/>
     <use xlink:href="#mf323d1bb5b" x="484.043195" y="297.173672" style="fill: #ff0000; stroke: #ffffff; stroke-linejoin: miter"/>
     <use xlink:href="#mf323d1bb5b" x="506.434483" y="307.000195" style="fill: #ff0000; stroke: #ffffff; stroke-linejoin: miter"/>
     <use xlink:href="#mf323d1bb5b" x="528.825772" y="311.466797" style="fill: #ff0000; stroke: #ffffff; stroke-linejoin: miter"/>
     <use xlink:href="#mf323d1bb5b" x="551.217061" y="315.040078" style="fill: #ff0000; stroke: #ffffff; stroke-linejoin: miter"/>
     <use xlink:href="#mf323d1bb5b" x="573.608349" y="316.826719" style="fill: #ff0000; stroke: #ffffff; stroke-linejoin: miter"/>
    </g>
   </g>
   <g id="patch_3">
    <path d="M 81 320.4 
L 81 43.2 
" style="fill: none; stroke: #000000; stroke-width: 0.8; stroke-linejoin: miter; stroke-linecap: square"/>
   </g>
   <g id="patch_4">
    <path d="M 583.2 320.4 
L 583.2 43.2 
" style="fill: none; stroke: #000000; stroke-width: 0.8; stroke-linejoin: miter; stroke-linecap: square"/>
   </g>
   <g id="patch_5">
    <path d="M 81 320.4 
L 583.2 320.4 
" style="fill: none; stroke: #000000; stroke-width: 0.8; stroke-linejoin: miter; stroke-linecap: square"/>
   </g>
   <g id="patch_6">
    <path d="M 81 43.2 
L 583.2 43.2 
" style="fill: none; stroke: #000000; stroke-width: 0.8; stroke-linejoin: miter; stroke-linecap: square"/>
   </g>
   <g id="text_24">
    <!-- ВРЕМЯ ЗАРЯДКИ: 65.90 с -->
    <g transform="translate(85.565455 53.595)scale(0.09 -0.09)">
     <defs>
      <path id="DejaVuSans-Bold-412" d="M 2456 2859 
Q 2741 2859 2887 2984 
Q 3034 3109 3034 3353 
Q 3034 3594 2887 3720 
Q 2741 3847 2456 3847 
L 1791 3847 
L 1791 2859 
L 2456 2859 
z
M 2497 819 
Q 2859 819 3042 972 
Q 3225 1125 3225 1434 
Q 3225 1738 3044 1889 
Q 2863 2041 2497 2041 
L 1791 2041 
L 1791 819 
L 2497 819 
z
M 3616 2497 
Q 4003 2384 4215 2081 
Q 4428 1778 4428 1338 
Q 4428 663 3972 331 
Q 3516 0 2584 0 
L 588 0 
L 588 4666 
L 2394 4666 
Q 3366 4666 3802 4372 
Q 4238 4078 4238 3431 
Q 4238 3091 4078 2852 
Q 3919 2613 3616 2497 
z
" transform="scale(0.015625)"/>
      <path id="DejaVuSans-Bold-420" d="M 588 4666 
L 2584 4666 
Q 3475 4666 3951 4270 
Q 4428 3875 4428 3144 
Q 4428 2409 3951 2014 
Q 3475 1619 2584 1619 
L 1791 1619 
L 1791 0 
L 588 0 
L 588 4666 
z
M 1791 3794 
L 1791 2491 
L 2456 2491 
Q 2806 2491 2997 2661 
Q 3188 2831 3188 3144 
Q 3188 3456 2997 3625 
Q 2806 3794 2456 3794 
L 1791 3794 
z
" transform="scale(0.015625)"/>
      <path id="DejaVuSans-Bold-415" d="M 588 4666 
L 3834 4666 
L 3834 3756 
L 1791 3756 
L 1791 2888 
L 3713 2888 
L 3713 1978 
L 1791 1978 
L 1791 909 
L 3903 909 
L 3903 0 
L 588 0 
L 588 4666 
z
" transform="scale(0.015625)"/>
      <path id="DejaVuSans-Bold-41c" d="M 588 4666 
L 2119 4666 
L 3181 2169 
L 4250 4666 
L 5778 4666 
L 5778 0 
L 4641 0 
L 4641 3413 
L 3566 897 
L 2803 897 
L 1728 3413 
L 1728 0 
L 588 0 
L 588 4666 
z
" transform="scale(0.015625)"/>
      <path id="DejaVuSans-Bold-42f" d="M 1831 3200 
Q 1831 2878 1995 2737 
Q 2159 2597 2538 2597 
L 3138 2597 
L 3138 3794 
L 2538 3794 
Q 2159 3794 1995 3656 
Q 1831 3519 1831 3200 
z
M 409 0 
L 1572 1981 
Q 1334 2116 981 2452 
Q 628 2788 628 3253 
Q 628 3953 1058 4309 
Q 1488 4666 2409 4666 
L 4341 4666 
L 4341 0 
L 3138 0 
L 3138 1766 
L 2728 1766 
L 1691 0 
L 409 0 
z
" transform="scale(0.015625)"/>
      <path id="DejaVuSans-Bold-20" transform="scale(0.015625)"/>
      <path id="DejaVuSans-Bold-417" d="M 3163 2516 
Q 3634 2394 3879 2092 
Q 4125 1791 4125 1325 
Q 4125 631 3594 270 
Q 3063 -91 1950 -91 
Q 1491 -91 1125 -31 
Q 759 28 422 141 
L 422 1069 
Q 759 900 1092 814 
Q 1425 728 1903 728 
Q 2413 728 2667 893 
Q 2922 1059 2922 1369 
Q 2922 1688 2661 1852 
Q 2400 2016 1797 2016 
L 1222 2016 
L 1222 2791 
L 1822 2791 
Q 2369 2791 2591 2933 
Q 2813 3075 2813 3366 
Q 2813 3634 2597 3781 
Q 2381 3928 1956 3928 
Q 1513 3928 1128 3851 
Q 744 3775 528 3669 
L 528 4550 
Q 738 4622 1198 4686 
Q 1659 4750 1953 4750 
Q 2975 4750 3495 4451 
Q 4016 4153 4016 3553 
Q 4016 3144 3800 2883 
Q 3584 2622 3163 2516 
z
" transform="scale(0.015625)"/>
      <path id="DejaVuSans-Bold-410" d="M 3419 850 
L 1538 850 
L 1241 0 
L 31 0 
L 1759 4666 
L 3194 4666 
L 4922 0 
L 3713 0 
L 3419 850 
z
M 1838 1716 
L 3116 1716 
L 2478 3572 
L 1838 1716 
z
" transform="scale(0.015625)"/>
      <path id="DejaVuSans-Bold-414" d="M 2153 909 
L 3453 909 
L 3453 3756 
L 2444 3756 
L 2444 3472 
Q 2444 1472 2153 909 
z
M 734 909 
Q 1059 1125 1150 1442 
Q 1241 1759 1241 3784 
L 1241 4666 
L 4656 4666 
L 4656 909 
L 5316 909 
L 5316 -1003 
L 4406 -1003 
L 4406 0 
L 1294 0 
L 1294 -1003 
L 384 -1003 
L 384 909 
L 734 909 
z
" transform="scale(0.015625)"/>
      <path id="DejaVuSans-Bold-41a" d="M 588 4666 
L 1791 4666 
L 1791 2741 
L 3672 4666 
L 5034 4666 
L 3181 2775 
L 5138 0 
L 3813 0 
L 2409 1988 
L 1791 1356 
L 1791 0 
L 588 0 
L 588 4666 
z
" transform="scale(0.015625)"/>
      <path id="DejaVuSans-Bold-418" d="M 4769 4666 
L 4769 0 
L 3628 0 
L 3628 3200 
L 1931 0 
L 588 0 
L 588 4666 
L 1728 4666 
L 1728 1466 
L 3425 4666 
L 4769 4666 
z
" transform="scale(0.015625)"/>
      <path id="DejaVuSans-Bold-3a" d="M 716 3500 
L 1844 3500 
L 1844 2291 
L 716 2291 
L 716 3500 
z
M 716 1209 
L 1844 1209 
L 1844 0 
L 716 0 
L 716 1209 
z
" transform="scale(0.015625)"/>
      <path id="DejaVuSans-Bold-36" d="M 2316 2303 
Q 2000 2303 1842 2098 
Q 1684 1894 1684 1484 
Q 1684 1075 1842 870 
Q 2000 666 2316 666 
Q 2634 666 2792 870 
Q 2950 1075 2950 1484 
Q 2950 1894 2792 2098 
Q 2634 2303 2316 2303 
z
M 3803 4544 
L 3803 3681 
Q 3506 3822 3243 3889 
Q 2981 3956 2731 3956 
Q 2194 3956 1894 3657 
Q 1594 3359 1544 2772 
Q 1750 2925 1990 3001 
Q 2231 3078 2516 3078 
Q 3231 3078 3670 2659 
Q 4109 2241 4109 1563 
Q 4109 813 3618 361 
Q 3128 -91 2303 -91 
Q 1394 -91 895 523 
Q 397 1138 397 2266 
Q 397 3422 980 4083 
Q 1563 4744 2578 4744 
Q 2900 4744 3203 4694 
Q 3506 4644 3803 4544 
z
" transform="scale(0.015625)"/>
      <path id="DejaVuSans-Bold-35" d="M 678 4666 
L 3669 4666 
L 3669 3781 
L 1638 3781 
L 1638 3059 
Q 1775 3097 1914 3117 
Q 2053 3138 2203 3138 
Q 3056 3138 3531 2711 
Q 4006 2284 4006 1522 
Q 4006 766 3489 337 
Q 2972 -91 2053 -91 
Q 1656 -91 1267 -14 
Q 878 63 494 219 
L 494 1166 
Q 875 947 1217 837 
Q 1559 728 1863 728 
Q 2300 728 2551 942 
Q 2803 1156 2803 1522 
Q 2803 1891 2551 2103 
Q 2300 2316 1863 2316 
Q 1603 2316 1309 2248 
Q 1016 2181 678 2041 
L 678 4666 
z
" transform="scale(0.015625)"/>
      <path id="DejaVuSans-Bold-2e" d="M 653 1209 
L 1778 1209 
L 1778 0 
L 653 0 
L 653 1209 
z
" transform="scale(0.015625)"/>
      <path id="DejaVuSans-Bold-39" d="M 641 103 
L 641 966 
Q 928 831 1190 764 
Q 1453 697 1709 697 
Q 2247 697 2547 995 
Q 2847 1294 2900 1881 
Q 2688 1725 2447 1647 
Q 2206 1569 1925 1569 
Q 1209 1569 770 1986 
Q 331 2403 331 3084 
Q 331 3838 820 4291 
Q 1309 4744 2131 4744 
Q 3044 4744 3544 4128 
Q 4044 3513 4044 2388 
Q 4044 1231 3459 570 
Q 2875 -91 1856 -91 
Q 1528 -91 1228 -42 
Q 928 6 641 103 
z
M 2125 2350 
Q 2441 2350 2600 2554 
Q 2759 2759 2759 3169 
Q 2759 3575 2600 3781 
Q 2441 3988 2125 3988 
Q 1809 3988 1650 3781 
Q 1491 3575 1491 3169 
Q 1491 2759 1650 2554 
Q 1809 2350 2125 2350 
z
" transform="scale(0.015625)"/>
      <path id="DejaVuSans-Bold-30" d="M 2944 2338 
Q 2944 3213 2780 3570 
Q 2616 3928 2228 3928 
Q 1841 3928 1675 3570 
Q 1509 3213 1509 2338 
Q 1509 1453 1675 1090 
Q 1841 728 2228 728 
Q 2613 728 2778 1090 
Q 2944 1453 2944 2338 
z
M 4147 2328 
Q 4147 1169 3647 539 
Q 3147 -91 2228 -91 
Q 1306 -91 806 539 
Q 306 1169 306 2328 
Q 306 3491 806 4120 
Q 1306 4750 2228 4750 
Q 3147 4750 3647 4120 
Q 4147 3491 4147 2328 
z
" transform="scale(0.015625)"/>
      <path id="DejaVuSans-Bold-441" d="M 3366 3391 
L 3366 2478 
Q 3138 2634 2908 2709 
Q 2678 2784 2431 2784 
Q 1963 2784 1702 2511 
Q 1441 2238 1441 1747 
Q 1441 1256 1702 982 
Q 1963 709 2431 709 
Q 2694 709 2930 787 
Q 3166 866 3366 1019 
L 3366 103 
Q 3103 6 2833 -42 
Q 2563 -91 2291 -91 
Q 1344 -91 809 395 
Q 275 881 275 1747 
Q 275 2613 809 3098 
Q 1344 3584 2291 3584 
Q 2566 3584 2833 3536 
Q 3100 3488 3366 3391 
z
" transform="scale(0.015625)"/>
     </defs>
     <use xlink:href="#DejaVuSans-Bold-412"/>
     <use xlink:href="#DejaVuSans-Bold-420" x="76.220703"/>
     <use xlink:href="#DejaVuSans-Bold-415" x="149.511719"/>
     <use xlink:href="#DejaVuSans-Bold-41c" x="217.822266"/>
     <use xlink:href="#DejaVuSans-Bold-42f" x="317.333984"/>
     <use xlink:href="#DejaVuSans-Bold-20" x="394.335938"/>
     <use xlink:href="#DejaVuSans-Bold-417" x="429.150391"/>
     <use xlink:href="#DejaVuSans-Bold-410" x="500.195312"/>
     <use xlink:href="#DejaVuSans-Bold-420" x="577.587891"/>
     <use xlink:href="#DejaVuSans-Bold-42f" x="650.878906"/>
     <use xlink:href="#DejaVuSans-Bold-414" x="727.880859"/>
     <use xlink:href="#DejaVuSans-Bold-41a" x="816.943359"/>
     <use xlink:href="#DejaVuSans-Bold-418" x="898.681641"/>
     <use xlink:href="#DejaVuSans-Bold-3a" x="982.373047"/>
     <use xlink:href="#DejaVuSans-Bold-20" x="1022.363281"/>
     <use xlink:href="#DejaVuSans-Bold-36" x="1057.177734"/>
     <use xlink:href="#DejaVuSans-Bold-35" x="1126.757812"/>
     <use xlink:href="#DejaVuSans-Bold-2e" x="1196.337891"/>
     <use xlink:href="#DejaVuSans-Bold-39" x="1234.326172"/>
     <use xlink:href="#DejaVuSans-Bold-30" x="1303.90625"/>
     <use xlink:href="#DejaVuSans-Bold-20" x="1373.486328"/>
     <use xlink:href="#DejaVuSans-Bold-441" x="1408.300781"/>
    </g>
   </g>
   <g id="text_25">
    <!-- ВРЕМЯ PAЗРЯДКИ: 43.00 с -->
    <g transform="translate(85.565455 63.99)scale(0.09 -0.09)">
     <defs>
      <path id="DejaVuSans-Bold-50" d="M 588 4666 
L 2584 4666 
Q 3475 4666 3951 4270 
Q 4428 3875 4428 3144 
Q 4428 2409 3951 2014 
Q 3475 1619 2584 1619 
L 1791 1619 
L 1791 0 
L 588 0 
L 588 4666 
z
M 1791 3794 
L 1791 2491 
L 2456 2491 
Q 2806 2491 2997 2661 
Q 3188 2831 3188 3144 
Q 3188 3456 2997 3625 
Q 2806 3794 2456 3794 
L 1791 3794 
z
" transform="scale(0.015625)"/>
      <path id="DejaVuSans-Bold-41" d="M 3419 850 
L 1538 850 
L 1241 0 
L 31 0 
L 1759 4666 
L 3194 4666 
L 4922 0 
L 3713 0 
L 3419 850 
z
M 1838 1716 
L 3116 1716 
L 2478 3572 
L 1838 1716 
z
" transform="scale(0.015625)"/>
      <path id="DejaVuSans-Bold-34" d="M 2356 3675 
L 1038 1722 
L 2356 1722 
L 2356 3675 
z
M 2156 4666 
L 3494 4666 
L 3494 1722 
L 4159 1722 
L 4159 850 
L 3494 850 
L 3494 0 
L 2356 0 
L 2356 850 
L 288 850 
L 288 1881 
L 2156 4666 
z
" transform="scale(0.015625)"/>
      <path id="DejaVuSans-Bold-33" d="M 2981 2516 
Q 3453 2394 3698 2092 
Q 3944 1791 3944 1325 
Q 3944 631 3412 270 
Q 2881 -91 1863 -91 
Q 1503 -91 1142 -33 
Q 781 25 428 141 
L 428 1069 
Q 766 900 1098 814 
Q 1431 728 1753 728 
Q 2231 728 2486 893 
Q 2741 1059 2741 1369 
Q 2741 1688 2480 1852 
Q 2219 2016 1709 2016 
L 1228 2016 
L 1228 2791 
L 1734 2791 
Q 2188 2791 2409 2933 
Q 2631 3075 2631 3366 
Q 2631 3634 2415 3781 
Q 2200 3928 1806 3928 
Q 1516 3928 1219 3862 
Q 922 3797 628 3669 
L 628 4550 
Q 984 4650 1334 4700 
Q 1684 4750 2022 4750 
Q 2931 4750 3382 4451 
Q 3834 4153 3834 3553 
Q 3834 3144 3618 2883 
Q 3403 2622 2981 2516 
z
" transform="scale(0.015625)"/>
     </defs>
     <use xlink:href="#DejaVuSans-Bold-412"/>
     <use xlink:href="#DejaVuSans-Bold-420" x="76.220703"/>
     <use xlink:href="#DejaVuSans-Bold-415" x="149.511719"/>
     <use xlink:href="#DejaVuSans-Bold-41c" x="217.822266"/>
     <use xlink:href="#DejaVuSans-Bold-42f" x="317.333984"/>
     <use xlink:href="#DejaVuSans-Bold-20" x="394.335938"/>
     <use xlink:href="#DejaVuSans-Bold-50" x="429.150391"/>
     <use xlink:href="#DejaVuSans-Bold-41" x="493.316406"/>
     <use xlink:href="#DejaVuSans-Bold-417" x="570.708984"/>
     <use xlink:href="#DejaVuSans-Bold-420" x="641.753906"/>
     <use xlink:href="#DejaVuSans-Bold-42f" x="715.044922"/>
     <use xlink:href="#DejaVuSans-Bold-414" x="792.046875"/>
     <use xlink:href="#DejaVuSans-Bold-41a" x="881.109375"/>
     <use xlink:href="#DejaVuSans-Bold-418" x="962.847656"/>
     <use xlink:href="#DejaVuSans-Bold-3a" x="1046.539062"/>
     <use xlink:href="#DejaVuSans-Bold-20" x="1086.529297"/>
     <use xlink:href="#DejaVuSans-Bold-34" x="1121.34375"/>
     <use xlink:href="#DejaVuSans-Bold-33" x="1190.923828"/>
     <use xlink:href="#DejaVuSans-Bold-2e" x="1260.503906"/>
     <use xlink:href="#DejaVuSans-Bold-30" x="1298.492188"/>
     <use xlink:href="#DejaVuSans-Bold-30" x="1368.072266"/>
     <use xlink:href="#DejaVuSans-Bold-20" x="1437.652344"/>
     <use xlink:href="#DejaVuSans-Bold-441" x="1472.466797"/>
    </g>
   </g>
   <g id="text_26">
    <!-- Последовательная зарядка и разрядка конденсатора в RC-цепи -->
    <g transform="translate(161.770313 37.2)scale(0.1 -0.1)">
     <defs>
      <path id="DejaVuSans-41f" d="M 4184 4666 
L 4184 0 
L 3553 0 
L 3553 4134 
L 1259 4134 
L 1259 0 
L 628 0 
L 628 4666 
L 4184 4666 
z
" transform="scale(0.015625)"/>
      <path id="DejaVuSans-432" d="M 1156 1613 
L 1156 459 
L 1975 459 
Q 2369 459 2575 607 
Q 2781 756 2781 1038 
Q 2781 1319 2575 1466 
Q 2369 1613 1975 1613 
L 1156 1613 
z
M 1156 3041 
L 1156 2072 
L 1913 2072 
Q 2238 2072 2444 2201 
Q 2650 2331 2650 2563 
Q 2650 2794 2444 2917 
Q 2238 3041 1913 3041 
L 1156 3041 
z
M 581 3500 
L 1950 3500 
Q 2566 3500 2897 3275 
Q 3228 3050 3228 2634 
Q 3228 2313 3059 2123 
Q 2891 1934 2559 1888 
Q 2956 1813 3175 1575 
Q 3394 1338 3394 981 
Q 3394 513 3033 256 
Q 2672 0 2003 0 
L 581 0 
L 581 3500 
z
" transform="scale(0.015625)"/>
      <path id="DejaVuSans-44c" d="M 2781 1038 
Q 2781 1319 2576 1466 
Q 2372 1613 1978 1613 
L 1159 1613 
L 1159 459 
L 1978 459 
Q 2372 459 2576 607 
Q 2781 756 2781 1038 
z
M 581 3500 
L 1159 3500 
L 1159 2072 
L 2003 2072 
Q 2672 2072 3033 1817 
Q 3394 1563 3394 1038 
Q 3394 513 3033 256 
Q 2672 0 2003 0 
L 581 0 
L 581 3500 
z
" transform="scale(0.015625)"/>
      <path id="DejaVuSans-437" d="M 2206 1888 
Q 2594 1813 2809 1584 
Q 3025 1356 3025 1019 
Q 3025 478 2622 193 
Q 2219 -91 1475 -91 
Q 1225 -91 961 -47 
Q 697 -3 416 84 
L 416 619 
Q 638 503 903 445 
Q 1169 388 1459 388 
Q 1931 388 2195 563 
Q 2459 738 2459 1019 
Q 2459 1294 2225 1461 
Q 1991 1628 1563 1628 
L 1100 1628 
L 1100 2103 
L 1584 2103 
Q 1947 2103 2158 2242 
Q 2369 2381 2369 2600 
Q 2369 2800 2151 2944 
Q 1934 3088 1563 3088 
Q 1341 3088 1089 3047 
Q 838 3006 534 2916 
L 534 3438 
Q 841 3513 1106 3550 
Q 1372 3588 1609 3588 
Q 2222 3588 2576 3342 
Q 2931 3097 2931 2656 
Q 2931 2366 2743 2164 
Q 2556 1963 2206 1888 
z
" transform="scale(0.015625)"/>
      <path id="DejaVuSans-52" d="M 2841 2188 
Q 3044 2119 3236 1894 
Q 3428 1669 3622 1275 
L 4263 0 
L 3584 0 
L 2988 1197 
Q 2756 1666 2539 1819 
Q 2322 1972 1947 1972 
L 1259 1972 
L 1259 0 
L 628 0 
L 628 4666 
L 2053 4666 
Q 2853 4666 3247 4331 
Q 3641 3997 3641 3322 
Q 3641 2881 3436 2590 
Q 3231 2300 2841 2188 
z
M 1259 4147 
L 1259 2491 
L 2053 2491 
Q 2509 2491 2742 2702 
Q 2975 2913 2975 3322 
Q 2975 3731 2742 3939 
Q 2509 4147 2053 4147 
L 1259 4147 
z
" transform="scale(0.015625)"/>
      <path id="DejaVuSans-43" d="M 4122 4306 
L 4122 3641 
Q 3803 3938 3442 4084 
Q 3081 4231 2675 4231 
Q 1875 4231 1450 3742 
Q 1025 3253 1025 2328 
Q 1025 1406 1450 917 
Q 1875 428 2675 428 
Q 3081 428 3442 575 
Q 3803 722 4122 1019 
L 4122 359 
Q 3791 134 3420 21 
Q 3050 -91 2638 -91 
Q 1578 -91 968 557 
Q 359 1206 359 2328 
Q 359 3453 968 4101 
Q 1578 4750 2638 4750 
Q 3056 4750 3426 4639 
Q 3797 4528 4122 4306 
z
" transform="scale(0.015625)"/>
      <path id="DejaVuSans-2d" d="M 313 2009 
L 1997 2009 
L 1997 1497 
L 313 1497 
L 313 2009 
z
" transform="scale(0.015625)"/>
      <path id="DejaVuSans-446" d="M 3603 0 
L 581 0 
L 581 3500 
L 1159 3500 
L 1159 459 
L 3025 459 
L 3025 3500 
L 3603 3500 
L 3603 459 
L 4063 459 
L 4063 -884 
L 3603 -884 
L 3603 0 
z
" transform="scale(0.015625)"/>
     </defs>
     <use xlink:href="#DejaVuSans-41f"/>
     <use xlink:href="#DejaVuSans-43e" x="75.195312"/>
     <use xlink:href="#DejaVuSans-441" x="136.376953"/>
     <use xlink:href="#DejaVuSans-43b" x="191.357422"/>
     <use xlink:href="#DejaVuSans-435" x="255.273438"/>
     <use xlink:href="#DejaVuSans-434" x="316.796875"/>
     <use xlink:href="#DejaVuSans-43e" x="385.9375"/>
     <use xlink:href="#DejaVuSans-432" x="447.119141"/>
     <use xlink:href="#DejaVuSans-430" x="506.054688"/>
     <use xlink:href="#DejaVuSans-442" x="567.333984"/>
     <use xlink:href="#DejaVuSans-435" x="625.585938"/>
     <use xlink:href="#DejaVuSans-43b" x="687.109375"/>
     <use xlink:href="#DejaVuSans-44c" x="751.025391"/>
     <use xlink:href="#DejaVuSans-43d" x="809.960938"/>
     <use xlink:href="#DejaVuSans-430" x="875.341797"/>
     <use xlink:href="#DejaVuSans-44f" x="936.621094"/>
     <use xlink:href="#DejaVuSans-20" x="996.777344"/>
     <use xlink:href="#DejaVuSans-437" x="1028.564453"/>
     <use xlink:href="#DejaVuSans-430" x="1081.738281"/>
     <use xlink:href="#DejaVuSans-440" x="1143.017578"/>
     <use xlink:href="#DejaVuSans-44f" x="1206.494141"/>
     <use xlink:href="#DejaVuSans-434" x="1266.650391"/>
     <use xlink:href="#DejaVuSans-43a" x="1335.791016"/>
     <use xlink:href="#DejaVuSans-430" x="1396.191406"/>
     <use xlink:href="#DejaVuSans-20" x="1457.470703"/>
     <use xlink:href="#DejaVuSans-438" x="1489.257812"/>
     <use xlink:href="#DejaVuSans-20" x="1554.248047"/>
     <use xlink:href="#DejaVuSans-440" x="1586.035156"/>
     <use xlink:href="#DejaVuSans-430" x="1649.511719"/>
     <use xlink:href="#DejaVuSans-437" x="1710.791016"/>
     <use xlink:href="#DejaVuSans-440" x="1763.964844"/>
     <use xlink:href="#DejaVuSans-44f" x="1827.441406"/>
     <use xlink:href="#DejaVuSans-434" x="1887.597656"/>
     <use xlink:href="#DejaVuSans-43a" x="1956.738281"/>
     <use xlink:href="#DejaVuSans-430" x="2017.138672"/>
     <use xlink:href="#DejaVuSans-20" x="2078.417969"/>
     <use xlink:href="#DejaVuSans-43a" x="2110.205078"/>
     <use xlink:href="#DejaVuSans-43e" x="2170.605469"/>
     <use xlink:href="#DejaVuSans-43d" x="2231.787109"/>
     <use xlink:href="#DejaVuSans-434" x="2297.167969"/>
     <use xlink:href="#DejaVuSans-435" x="2366.308594"/>
     <use xlink:href="#DejaVuSans-43d" x="2427.832031"/>
     <use xlink:href="#DejaVuSans-441" x="2493.212891"/>
     <use xlink:href="#DejaVuSans-430" x="2548.193359"/>
     <use xlink:href="#DejaVuSans-442" x="2609.472656"/>
     <use xlink:href="#DejaVuSans-43e" x="2667.724609"/>
     <use xlink:href="#DejaVuSans-440" x="2728.90625"/>
     <use xlink:href="#DejaVuSans-430" x="2792.382812"/>
     <use xlink:href="#DejaVuSans-20" x="2853.662109"/>
     <use xlink:href="#DejaVuSans-432" x="2885.449219"/>
     <use xlink:href="#DejaVuSans-20" x="2944.384766"/>
     <use xlink:href="#DejaVuSans-52" x="2976.171875"/>
     <use xlink:href="#DejaVuSans-43" x="3040.654297"/>
     <use xlink:href="#DejaVuSans-2d" x="3110.478516"/>
     <use xlink:href="#DejaVuSans-446" x="3146.5625"/>
     <use xlink:href="#DejaVuSans-435" x="3214.628906"/>
     <use xlink:href="#DejaVuSans-43f" x="3276.152344"/>
     <use xlink:href="#DejaVuSans-438" x="3341.533203"/>
    </g>
   </g>
   <g id="legend_1">
    <g id="patch_7">
     <path d="M 525.635938 65.878125 
L 576.2 65.878125 
Q 578.2 65.878125 578.2 63.878125 
L 578.2 50.2 
Q 578.2 48.2 576.2 48.2 
L 525.635938 48.2 
Q 523.635938 48.2 523.635938 50.2 
L 523.635938 63.878125 
Q 523.635938 65.878125 525.635938 65.878125 
z
" style="fill: #ffffff; opacity: 0.8; stroke: #cccccc; stroke-linejoin: miter"/>
    </g>
    <g id="line2d_130">
     <path d="M 527.635938 56.298437 
L 537.635938 56.298437 
L 547.635938 56.298437 
" style="fill: none; stroke: #ff0000; stroke-linecap: square"/>
     <g>
      <use xlink:href="#mf323d1bb5b" x="537.635938" y="56.298437" style="fill: #ff0000; stroke: #ffffff; stroke-linejoin: miter"/>
     </g>
    </g>
    <g id="text_27">
     <!-- V(t) -->
     <g transform="translate(555.635938 59.798437)scale(0.1 -0.1)">
      <defs>
       <path id="DejaVuSans-56" d="M 1831 0 
L 50 4666 
L 709 4666 
L 2188 738 
L 3669 4666 
L 4325 4666 
L 2547 0 
L 1831 0 
z
" transform="scale(0.015625)"/>
       <path id="DejaVuSans-28" d="M 1984 4856 
Q 1566 4138 1362 3434 
Q 1159 2731 1159 2009 
Q 1159 1288 1364 580 
Q 1569 -128 1984 -844 
L 1484 -844 
Q 1016 -109 783 600 
Q 550 1309 550 2009 
Q 550 2706 781 3412 
Q 1013 4119 1484 4856 
L 1984 4856 
z
" transform="scale(0.015625)"/>
       <path id="DejaVuSans-74" d="M 1172 4494 
L 1172 3500 
L 2356 3500 
L 2356 3053 
L 1172 3053 
L 1172 1153 
Q 1172 725 1289 603 
Q 1406 481 1766 481 
L 2356 481 
L 2356 0 
L 1766 0 
Q 1100 0 847 248 
Q 594 497 594 1153 
L 594 3053 
L 172 3053 
L 172 3500 
L 594 3500 
L 594 4494 
L 1172 4494 
z
" transform="scale(0.015625)"/>
       <path id="DejaVuSans-29" d="M 513 4856 
L 1013 4856 
Q 1481 4119 1714 3412 
Q 1947 2706 1947 2009 
Q 1947 1309 1714 600 
Q 1481 -109 1013 -844 
L 513 -844 
Q 928 -128 1133 580 
Q 1338 1288 1338 2009 
Q 1338 2731 1133 3434 
Q 928 4138 513 4856 
z
" transform="scale(0.015625)"/>
      </defs>
      <use xlink:href="#DejaVuSans-56"/>
      <use xlink:href="#DejaVuSans-28" x="68.408203"/>
      <use xlink:href="#DejaVuSans-74" x="107.421875"/>
      <use xlink:href="#DejaVuSans-29" x="146.630859"/>
     </g>
    </g>
   </g>
  </g>
  <g id="text_28">
   <!-- ЗАВИСИМОСТЬ НАПРЯЖЕНИЯ ОТ ВРЕМЕНИ -->
   <g transform="translate(73.135937 22.396875)scale(0.2 -0.2)">
    <defs>
     <path id="DejaVuSans-Bold-421" d="M 4288 256 
Q 3956 84 3597 -3 
Q 3238 -91 2847 -91 
Q 1681 -91 1000 561 
Q 319 1213 319 2328 
Q 319 3447 1000 4098 
Q 1681 4750 2847 4750 
Q 3238 4750 3597 4662 
Q 3956 4575 4288 4403 
L 4288 3438 
Q 3953 3666 3628 3772 
Q 3303 3878 2944 3878 
Q 2300 3878 1931 3465 
Q 1563 3053 1563 2328 
Q 1563 1606 1931 1193 
Q 2300 781 2944 781 
Q 3303 781 3628 887 
Q 3953 994 4288 1222 
L 4288 256 
z
" transform="scale(0.015625)"/>
     <path id="DejaVuSans-Bold-41e" d="M 2719 3878 
Q 2169 3878 1866 3472 
Q 1563 3066 1563 2328 
Q 1563 1594 1866 1187 
Q 2169 781 2719 781 
Q 3272 781 3575 1187 
Q 3878 1594 3878 2328 
Q 3878 3066 3575 3472 
Q 3272 3878 2719 3878 
z
M 2719 4750 
Q 3844 4750 4481 4106 
Q 5119 3463 5119 2328 
Q 5119 1197 4481 553 
Q 3844 -91 2719 -91 
Q 1597 -91 958 553 
Q 319 1197 319 2328 
Q 319 3463 958 4106 
Q 1597 4750 2719 4750 
z
" transform="scale(0.015625)"/>
     <path id="DejaVuSans-Bold-422" d="M 31 4666 
L 4331 4666 
L 4331 3756 
L 2784 3756 
L 2784 0 
L 1581 0 
L 1581 3756 
L 31 3756 
L 31 4666 
z
" transform="scale(0.015625)"/>
     <path id="DejaVuSans-Bold-42c" d="M 2497 819 
Q 2875 819 3044 959 
Q 3225 1113 3225 1403 
Q 3225 1688 3044 1838 
Q 2878 1978 2497 1978 
L 1791 1978 
L 1791 819 
L 2497 819 
z
M 4428 1441 
Q 4428 697 3972 366 
Q 3469 0 2584 0 
L 588 0 
L 588 4666 
L 1791 4666 
L 1791 2888 
L 2584 2888 
Q 3469 2888 3972 2522 
Q 4428 2191 4428 1441 
z
" transform="scale(0.015625)"/>
     <path id="DejaVuSans-Bold-41d" d="M 588 4666 
L 1791 4666 
L 1791 2888 
L 3566 2888 
L 3566 4666 
L 4769 4666 
L 4769 0 
L 3566 0 
L 3566 1978 
L 1791 1978 
L 1791 0 
L 588 0 
L 588 4666 
z
" transform="scale(0.015625)"/>
     <path id="DejaVuSans-Bold-41f" d="M 4769 4666 
L 4769 0 
L 3566 0 
L 3566 3756 
L 1791 3756 
L 1791 0 
L 588 0 
L 588 4666 
L 4769 4666 
z
" transform="scale(0.015625)"/>
     <path id="DejaVuSans-Bold-416" d="M 94 0 
L 2003 2797 
L 297 4666 
L 1559 4666 
L 3316 2741 
L 3316 4666 
L 4519 4666 
L 4519 2741 
L 6275 4666 
L 7538 4666 
L 5831 2797 
L 7741 0 
L 6416 0 
L 5075 1966 
L 4519 1356 
L 4519 0 
L 3316 0 
L 3316 1356 
L 2759 1966 
L 1419 0 
L 94 0 
z
" transform="scale(0.015625)"/>
    </defs>
    <use xlink:href="#DejaVuSans-Bold-417"/>
    <use xlink:href="#DejaVuSans-Bold-410" x="71.044922"/>
    <use xlink:href="#DejaVuSans-Bold-412" x="148.4375"/>
    <use xlink:href="#DejaVuSans-Bold-418" x="224.658203"/>
    <use xlink:href="#DejaVuSans-Bold-421" x="308.349609"/>
    <use xlink:href="#DejaVuSans-Bold-418" x="381.738281"/>
    <use xlink:href="#DejaVuSans-Bold-41c" x="465.429688"/>
    <use xlink:href="#DejaVuSans-Bold-41e" x="564.941406"/>
    <use xlink:href="#DejaVuSans-Bold-421" x="649.951172"/>
    <use xlink:href="#DejaVuSans-Bold-422" x="723.339844"/>
    <use xlink:href="#DejaVuSans-Bold-42c" x="791.552734"/>
    <use xlink:href="#DejaVuSans-Bold-20" x="867.773438"/>
    <use xlink:href="#DejaVuSans-Bold-41d" x="902.587891"/>
    <use xlink:href="#DejaVuSans-Bold-410" x="986.279297"/>
    <use xlink:href="#DejaVuSans-Bold-41f" x="1063.671875"/>
    <use xlink:href="#DejaVuSans-Bold-420" x="1147.363281"/>
    <use xlink:href="#DejaVuSans-Bold-42f" x="1220.654297"/>
    <use xlink:href="#DejaVuSans-Bold-416" x="1297.65625"/>
    <use xlink:href="#DejaVuSans-Bold-415" x="1420.068359"/>
    <use xlink:href="#DejaVuSans-Bold-41d" x="1488.378906"/>
    <use xlink:href="#DejaVuSans-Bold-418" x="1572.070312"/>
    <use xlink:href="#DejaVuSans-Bold-42f" x="1655.761719"/>
    <use xlink:href="#DejaVuSans-Bold-20" x="1732.763672"/>
    <use xlink:href="#DejaVuSans-Bold-41e" x="1767.578125"/>
    <use xlink:href="#DejaVuSans-Bold-422" x="1852.587891"/>
    <use xlink:href="#DejaVuSans-Bold-20" x="1920.800781"/>
    <use xlink:href="#DejaVuSans-Bold-412" x="1955.615234"/>
    <use xlink:href="#DejaVuSans-Bold-420" x="2031.835938"/>
    <use xlink:href="#DejaVuSans-Bold-415" x="2105.126953"/>
    <use xlink:href="#DejaVuSans-Bold-41c" x="2173.4375"/>
    <use xlink:href="#DejaVuSans-Bold-415" x="2272.949219"/>
    <use xlink:href="#DejaVuSans-Bold-41d" x="2341.259766"/>
    <use xlink:href="#DejaVuSans-Bold-418" x="2424.951172"/>
   </g>
  </g>
 </g>
 <defs>
  <clipPath id="p20689dbf0e">
   <rect x="81" y="43.2" width="502.2" height="277.2"/>
  </clipPath>
 </defs>
</svg>
